<?xml version="1.0" encoding="UTF-8"?>
<svg xmlns="http://www.w3.org/2000/svg" xmlns:xlink="http://www.w3.org/1999/xlink" version="1.2" >
<font id="Rossmore">
<font-face  font-family="Rossmore" units-per-em="1000" ascent="750" descent="-250" font-style="normal" font-weight="400" font-stretch="normal" cap-height="700" x-height="500" underline-position="-75" underline-thickness="50" />
<missing-glyph  horiz-adv-x="201" d="" />
<glyph glyph-name="NULL" d="" />
<glyph glyph-name="nonmarkingreturn" unicode="&#xd;" horiz-adv-x="201" d="" />
<glyph glyph-name="space" unicode="&#x20;" horiz-adv-x="201" d="" />
<glyph glyph-name="dollar" unicode="&#x24;" horiz-adv-x="354" d="M300 575 Q321 568 325 548.5 Q329 529 325 507 Q320 486 313 466.5 Q306 447 298 427 Q287 402 272 377 Q257 352 237 332 Q229 326 225 333 Q222 336 226 340 Q228 342 229.5 343 Q231 344 233 346 Q259 381 278 419.5 Q297 458 308 500 Q310 506 312.5 516 Q315 526 315 536.5 Q315 547 311.5 555 Q308 563 299 566 Q288 568 278 565 Q268 562 257 558 Q254 557 252 552 Q243 529 234 505 Q225 481 217 458 Q200 413 184 367.5 Q168 322 154 276 Q168 267 182.5 256.5 Q197 246 208 234 Q235 205 226 164 Q220 139 204.5 115 Q189 91 168.5 70.5 Q148 50 123 35.5 Q98 21 72 16 Q68 15 67 11 Q57 -24 46.5 -57.5 Q36 -91 27 -126 Q29 -131 26 -136.5 Q23 -142 19 -142 Q9 -142 12 -130 Q20 -92 30 -58 Q40 -24 51 14 Q33 16 18 28 Q3 40 5 61 Q6 79 16 103.5 Q26 128 41 151 Q56 174 75 191.5 Q94 209 114 215 Q119 231 124.5 246.5 Q130 262 135 279 Q120 290 105 305 Q91 318 87.5 334.5 Q84 351 86 368.5 Q88 386 95 403 Q102 420 111 435 Q134 473 164.5 505 Q195 537 234 561 Q238 563 239 566 Q253 602 266.5 638.5 Q280 675 294 711 Q297 720 303 718 Q307 717 307.5 713.5 Q308 710 307 707 Q296 675 284 639.5 Q272 604 260 573 Q280 580 300 575 Z M54 25 Q68 70 81.5 113.5 Q95 157 109 201 Q95 194 80 178 Q65 162 52.5 142.5 Q40 123 30.5 102 Q21 81 19 64 Q17 47 25 36.5 Q33 26 54 25 Z M196 233 Q186 243 174.5 251 Q163 259 150 267 Q131 207 112 148.5 Q93 90 73 30 Q92 34 113.5 48.5 Q135 63 155 82.5 Q175 102 190.5 125 Q206 148 212 171 Q221 209 196 233 Z M138 288 Q159 352 182 415 Q205 478 229 541 Q203 524 170.5 489.5 Q138 455 114 408 Q108 396 104 383 Q100 370 99.5 356.5 Q99 343 102.5 330 Q106 317 117 306 Q122 301 127.5 297 Q133 293 138 288 Z " />
<glyph glyph-name="percent" unicode="&#x25;" horiz-adv-x="345" d="M311 513 Q291 503 272.5 496 Q254 489 236 483 Q233 482 231 477 Q225 457 208 439.5 Q191 422 171 419 Q158 416 148 428 Q143 433 145 445 Q147 457 152 464 Q162 480 178 496.5 Q194 513 212 513 Q224 512 223 499 Q226 497 229 493 Q231 494 233 494.5 Q235 495 237 496 Q269 507 299.5 521 Q330 535 350 554 Q356 559 362 565 Q368 571 374 577 Q378 580 384 578 Q392 575 387.5 568.5 Q383 562 380 559 Q372 551 365 545.5 Q358 540 351 533 Q264 432 182.5 328 Q101 224 23 118 Q54 149 86 178 Q118 207 151 236 Q156 241 159.5 243.5 Q163 246 168 246 Q178 244 174 235 Q157 208 144 183 Q131 158 124 132 Q123 127 124.5 121 Q126 115 132 115 Q142 116 153.5 123 Q165 130 176 138 Q164 153 168.5 177 Q173 201 187 223 Q196 234 210.5 240 Q225 246 236 235 Q241 230 241.5 224 Q242 218 242 212 Q242 205 236.5 193 Q231 181 222 168.5 Q213 156 202.5 144.5 Q192 133 182 127 Q167 118 150 109 Q133 100 118 112 Q110 118 110 128 Q110 138 112 146 Q118 165 126 180 Q134 195 142 210 Q134 204 119 190.5 Q104 177 85 159.5 Q66 142 47 123.5 Q28 105 13 89 Q-4 73 -23.5 50 Q-43 27 -60.5 6 Q-78 -15 -91 -30.5 Q-104 -46 -106 -46 Q-111 -46 -112.5 -42.5 Q-114 -39 -112 -36 Q-75 21 -28 84 Q19 147 64 204 Q126 282 186.5 359.5 Q247 437 311 513 Z M182 144 Q189 149 196.5 158 Q204 167 211 177 Q218 187 223 196.5 Q228 206 230 212 Q232 221 229 229 Q228 233 223 233 Q209 231 200 218 Q195 211 189.5 201.5 Q184 192 180.5 182 Q177 172 177 162 Q177 152 182 144 Z M185 484 Q174 472 165 457.5 Q156 443 157 432 Q157 427 162 429 Q182 431 196 448 Q210 465 220 479 Q210 477 201.5 477.5 Q193 478 185 484 Z M194 489 Q195 488 195 488 Q198 487 199 487.5 Q200 488 202 493 Q198 490 194 489 Z " />
<glyph glyph-name="ampersand" unicode="&#x26;" horiz-adv-x="348" d="M181 176 Q196 190 212 203.5 Q228 217 244 231 Q249 236 257 241 Q260 244 265 242 Q270 240 270 238 Q270 236 269 233 Q268 230 266 230 Q264 232 263 230.5 Q262 229 260 228 Q241 211 223.5 195 Q206 179 188 163 Q185 160 186 157 Q194 134 199 111.5 Q204 89 212 66 Q214 57 218 53 Q220 52 218.5 50 Q217 48 215 50 Q207 53 203 60 Q195 83 188.5 105 Q182 127 174 150 Q149 127 124.5 104.5 Q100 82 75 60 Q56 43 37 29.5 Q18 16 -4 10 Q-17 7 -27.5 11 Q-38 15 -48 23 Q-63 45 -57.5 74 Q-52 103 -37 131.5 Q-22 160 -2.5 185 Q17 210 30 225 Q53 251 77 275.5 Q101 300 124 325 Q128 328 128 335 Q125 355 123 375 Q121 395 122 415 Q122 445 126 477 Q130 509 140.5 539 Q151 569 167.5 594.5 Q184 620 210 637 Q233 652 260 655 Q287 658 309 640 Q322 627 324 606 Q327 577 314.5 549 Q302 521 288 498 Q256 447 221 406 Q186 365 149 327 Q145 323 145 315 Q153 278 161 243 Q169 208 181 176 Z M131 309 Q101 277 71.5 246 Q42 215 16 180 Q5 165 -8 146 Q-21 127 -30.5 107 Q-40 87 -43.5 67 Q-47 47 -39 30 Q-34 24 -29.5 23 Q-25 22 -18 22 Q4 27 21 38.5 Q38 50 53 64 Q82 89 110 114 Q138 139 167 165 Q171 167 169 170 Q155 203 147 239 Q139 275 131 309 Z M141 343 Q186 391 225.5 437.5 Q265 484 291 536 Q301 556 308 579 Q315 602 306 623 Q297 643 278 644 Q259 645 243 637 Q213 624 193.5 600.5 Q174 577 162.5 548.5 Q151 520 145.5 489 Q140 458 138 430 Q136 408 137.5 386.5 Q139 365 141 343 Z " />
<glyph glyph-name="quotesingle" unicode="&#x27;" horiz-adv-x="173" d="M137 530 Q131 533 130 534.5 Q129 536 132 542 Q139 560 148.5 576.5 Q158 593 168 610 Q171 615 177 612 Q183 608 181.5 605 Q180 602 178 597 Q170 583 160 565.5 Q150 548 141 533 Q139 530 137 530 Z " />
<glyph glyph-name="parenleft" unicode="&#x28;" horiz-adv-x="242" d="M252 669 Q258 669 255.5 664 Q253 659 250 656 Q225 622 203 583 Q143 478 105 363 Q67 248 47 120 Q41 75 37 29 Q33 -17 35 -65 Q35 -70 35.5 -73.5 Q36 -77 37 -81 Q39 -83 41 -83.5 Q43 -84 45 -85 Q48 -86 46 -91 Q43 -96 37 -94 Q25 -90 23 -76 Q22 -68 21 -60.5 Q20 -53 20 -45 Q19 -10 21 24.5 Q23 59 26 94 Q50 316 154 529 Q163 548 177 572 Q191 596 205.5 618 Q220 640 232.5 654.5 Q245 669 252 669 Z " />
<glyph glyph-name="parenright" unicode="&#x29;" horiz-adv-x="257" d="M220 667 Q218 625 215.5 584 Q213 543 207.5 501 Q202 459 192.5 416.5 Q183 374 167 331 Q117 193 46 69 Q25 32 3.5 -4.5 Q-18 -41 -39 -78 Q-42 -82 -44.5 -86 Q-47 -90 -49 -94 Q-53 -98 -55 -98 Q-57 -98 -62 -95 Q-67 -92 -63.5 -88.5 Q-60 -85 -58 -81 Q-26 -24 6.5 32.5 Q39 89 68 149 Q94 202 117.5 255.5 Q141 309 160 366 Q186 442 194.5 520 Q203 598 208 679 Q209 682 209 686 Q209 690 211 693 Q219 693 220 685 L220 667 Z " />
<glyph glyph-name="asterisk" unicode="&#x2a;" horiz-adv-x="239" d="M177 415 Q174 413 171.5 417 Q169 421 167 426 Q162 439 158 452 Q154 465 149 478 Q142 459 137.5 446 Q133 433 129 413 Q127 406 125 404.5 Q123 403 122 404 Q117 405 117 411 Q119 421 121 428 Q125 444 129.5 458.5 Q134 473 139 488 Q125 479 115.5 471.5 Q106 464 92 453 Q89 451 81 443.5 Q73 436 70 436 Q58 441 69 450 Q86 466 104.5 479 Q123 492 140 506 Q135 518 132.5 529 Q130 540 127 553 Q125 556 125.5 559.5 Q126 563 131 563 Q138 563 137 556 Q137 555 138 554 Q140 544 142.5 535 Q145 526 148 517 Q156 540 168 565 Q170 572 175 572 Q185 569 180 560 Q176 552 173 543 Q170 534 167 525 Q177 531 186 537.5 Q195 544 205 551 Q210 554 217.5 556.5 Q225 559 229 554 Q231 551 229 547 Q227 543 224 543 Q219 547 213 542 Q200 533 187 523.5 Q174 514 160 504 Q153 499 155 490 Q160 473 165.5 457.5 Q171 442 176 426 Q178 422 179 419.5 Q180 417 177 415 Z " />
<glyph glyph-name="plus" unicode="&#x2b;" horiz-adv-x="336" d="M130 315 Q149 316 166.5 317 Q184 318 204 318 Q218 318 233 317 Q248 316 254 311 Q267 305 255 296 Q252 294 248.5 295.5 Q245 297 244 300 Q245 302 246 302.5 Q247 303 249 305 Q238 308 229 308 Q203 309 179.5 306.5 Q156 304 132 304 Q125 302 124 297 Q112 262 100 227.5 Q88 193 76 158 Q74 152 74 149 Q66 151 64.5 153.5 Q63 156 65 163 Q75 198 86 232 Q97 266 108 301 Q91 299 75.5 297.5 Q60 296 43 294 Q32 293 20.5 292 Q9 291 0 297 Q-2 299 -3.5 301 Q-5 303 -1 305 Q6 309 11 305 Q13 303 17 303 Q40 305 60.5 307 Q81 309 106 312 Q112 312 115 319 Q126 346 135 369 Q144 392 156 417 Q160 427 165 425 Q170 421 168 417 Q159 390 150 365.5 Q141 341 130 315 Z " />
<glyph glyph-name="comma" unicode="&#x2c;" horiz-adv-x="102" d="M-14 207 Q-18 209 -18 210.5 Q-18 212 -15 219 Q-10 230 -4 239.5 Q2 249 7 260 Q11 266 16 262 Q19 259 18 254 Q13 243 6.5 232.5 Q0 222 -6 211 Q-7 209 -9 207 Q-11 205 -14 207 Z " />
<glyph glyph-name="period" unicode="&#x2e;" horiz-adv-x="106" d="M4 241 Q12 250 18 244 Q20 243 20.5 239.5 Q21 236 19 234 Q17 232 15 230 Q13 228 9 230 Q1 232 4 241 Z " />
<glyph glyph-name="hyphen" unicode="&#x2d;" horiz-adv-x="204" d="M132 301 Q134 299 133 298 Q133 296 130 296 Q107 294 85 294.5 Q63 295 37 295 Q34 295 29.5 295 Q25 295 26 300 Q26 303 29 303.5 Q32 304 33 304 Q55 303 76 303.5 Q97 304 118 304 Q121 304 125 303.5 Q129 303 132 301 Z " />
<glyph glyph-name="slash" unicode="&#x2f;" horiz-adv-x="407" d="M441 690 Q444 694 448 691.5 Q452 689 450 684 Q440 664 426.5 643 Q413 622 399 600 Q385 578 370 557.5 Q355 537 342 519 Q288 445 233.5 371.5 Q179 298 125 224 Q95 183 65.5 143.5 Q36 104 7 63 Q-20 26 -47 -14 Q-74 -54 -98 -102 Q-100 -105 -101.5 -109 Q-103 -113 -101 -116 Q-98 -119 -100.5 -121 Q-103 -123 -106 -121 Q-115 -116 -113 -106 Q-102 -71 -79.5 -37 Q-57 -3 -30 37 Q1 83 33 127 Q65 171 97 216 Q137 270 176.5 324.5 Q216 379 256 433 Q285 472 314 510.5 Q343 549 372 588 Q392 612 407.5 637.5 Q423 663 441 690 Z " />
<glyph glyph-name="zero" unicode="0" horiz-adv-x="314" d="M284 486 Q287 477 287.5 468 Q288 459 288 449 Q286 405 273 349.5 Q260 294 239 239 Q218 184 190.5 134.5 Q163 85 133 52 Q119 38 100.5 22.5 Q82 7 58 4 Q50 2 43 4 Q20 8 7 28 Q-8 54 -9.5 87 Q-11 120 -7 154 Q6 262 52 364 Q61 383 72 405.5 Q83 428 98 449 Q113 470 131.5 487.5 Q150 505 173 513 Q184 517 198 512 Q208 508 215 495 Q222 498 228.5 502 Q235 506 243 508 Q256 512 268 506 Q280 500 284 486 Z M271 423 Q273 437 274 450.5 Q275 464 272 478 Q270 485 267.5 492.5 Q265 500 256 498 L255 498 Q244 496 236 490.5 Q228 485 220 478 Q219 477 219 474 Q219 467 217 459.5 Q215 452 219 445 Q222 442 217 442 Q209 444 207.5 449.5 Q206 455 207 463 L206 463 Q186 441 167 411.5 Q148 382 133 349 Q118 316 108 281.5 Q98 247 94 216 Q93 208 94 200.5 Q95 193 100 186 Q102 183 99 180 Q89 182 85 191.5 Q81 201 81 215 Q83 246 93.5 283 Q104 320 120.5 357 Q137 394 158 427.5 Q179 461 203 484 Q206 487 205 490 Q202 501 197.5 505 Q193 509 181 505 Q160 499 137.5 475 Q115 451 99 423 Q57 351 33.5 273.5 Q10 196 6 112 Q6 104 6.5 87.5 Q7 71 11 54.5 Q15 38 23 26 Q31 14 45 14 Q67 16 86.5 31 Q106 46 121 62 Q148 92 173 136 Q198 180 218.5 229.5 Q239 279 253 330 Q267 381 271 423 Z " />
<glyph glyph-name="one" unicode="1" horiz-adv-x="189" d="M202 581 Q210 577 209.5 569.5 Q209 562 207 554 Q198 531 187 505 Q161 446 135.5 387.5 Q110 329 86 269 Q60 206 37.5 141.5 Q15 77 -3 11 Q-7 -3 -11 -18.5 Q-15 -34 -17 -47 Q-11 -50 -14 -55.5 Q-17 -61 -21 -60 Q-29 -59 -28 -47 Q-24 -19 -16 15 Q-8 49 3 85 Q14 121 27 157.5 Q40 194 53 227 Q76 286 100 343.5 Q124 401 150 458 Q155 469 162.5 485 Q170 501 177 517 Q184 533 189 547.5 Q194 562 196 570 Q191 568 179.5 557.5 Q168 547 155.5 534 Q143 521 131 508 Q119 495 115 488 Q115 483 112.5 483 Q110 483 107 485 Q104 487 104.5 490.5 Q105 494 108 497 Q111 502 114.5 506.5 Q118 511 122 515 Q136 531 150 545.5 Q164 560 180 574 Q185 577 190 580.5 Q195 584 202 581 Z " />
<glyph glyph-name="two" unicode="2" horiz-adv-x="301" d="M103 72 Q157 147 197.5 229.5 Q238 312 258 399 Q263 419 265.5 439.5 Q268 460 267 481 Q265 501 258 523 Q251 545 231 549 Q213 550 194 539 Q164 520 142.5 494 Q121 468 107 437 Q102 425 98.5 412 Q95 399 99 386 Q101 380 104 378 Q106 376 105 372 Q96 375 92 383 Q84 400 88.5 419.5 Q93 439 100 453 Q109 469 121 486.5 Q133 504 147.5 519 Q162 534 178 545 Q194 556 209 559 Q240 565 261 541 Q276 522 280 498.5 Q284 475 282 453 Q278 400 263 348.5 Q248 297 226.5 248 Q205 199 177.5 153.5 Q150 108 122 66 Q139 59 156 54 Q173 49 190 43 Q196 41 200 40 Q208 37 205 32 Q204 29 195 33 Q175 39 155.5 45.5 Q136 52 116 58 Q98 36 79.5 15.5 Q61 -5 38 -22 Q15 -37 -8.5 -47 Q-32 -57 -56 -50 Q-75 -45 -86 -32 Q-97 -19 -99 -1 Q-101 31 -83.5 54.5 Q-66 78 -36 86 Q-1 96 35 89.5 Q71 83 103 72 Z M96 64 Q74 71 51.5 75.5 Q29 80 7.5 79 Q-14 78 -33 71.5 Q-52 65 -67 49 Q-78 36 -82.5 21.5 Q-87 7 -84 -10 Q-82 -23 -73 -32 Q-64 -41 -47 -40 Q-24 -38 -4 -28 Q16 -18 33 -4 Q51 11 66.5 28 Q82 45 96 64 Z " />
<glyph glyph-name="three" unicode="3" horiz-adv-x="268" d="M238 521 Q251 510 248.5 492 Q246 474 238 460 Q226 440 210.5 423.5 Q195 407 178.5 391.5 Q162 376 145 360 Q128 344 114 326 Q109 319 116 315 Q121 312 125 309.5 Q129 307 133 305 Q156 291 170 273 Q197 236 193 192 Q190 165 178.5 134.5 Q167 104 149 77 Q131 50 106.5 29 Q82 8 53 -1 Q30 -7 13 -3 Q-4 1 -15.5 13 Q-27 25 -32.5 43 Q-38 61 -38 81 Q-38 104 -27.5 136.5 Q-17 169 2.5 196.5 Q22 224 49.5 241.5 Q77 259 110 252 Q117 250 120.5 243.5 Q124 237 123 230 Q123 228 122 227 Q113 230 112 238 Q111 246 101 246 Q73 246 50 228.5 Q27 211 11 185 Q-5 159 -14 129 Q-23 99 -23 74 Q-23 62 -20 49.5 Q-17 37 -10.5 27 Q-4 17 7 12 Q18 7 33 10 Q59 15 82 33 Q105 51 123.5 75.5 Q142 100 154.5 128 Q167 156 173 181 Q181 213 171 245 Q161 277 131 295 Q126 298 121 301 Q116 304 111 307 Q107 309 101 315 Q92 323 99 333 Q106 343 122 357 Q138 371 156.5 388 Q175 405 193 424 Q211 443 223 463 Q229 473 233.5 487 Q238 501 232 513 Q229 521 221 521 Q208 523 194.5 516.5 Q181 510 170 500 Q159 491 147 477.5 Q135 464 125 449 Q115 434 108.5 417.5 Q102 401 104 385 Q107 380 108.5 377 Q110 374 115 372 Q117 371 116.5 369 Q116 367 113 367 Q107 369 102.5 372 Q98 375 96 382 Q90 396 95 414.5 Q100 433 111.5 452 Q123 471 137 487 Q151 503 162 512 Q178 525 199 530.5 Q220 536 238 521 Z " />
<glyph glyph-name="four" unicode="4" horiz-adv-x="265" d="M157 274 Q146 266 129 250.5 Q112 235 93 220 Q74 205 57 194 Q40 183 30 183 Q20 183 11 189 Q2 195 1 209 Q-1 226 7 255 Q15 284 31 316 Q47 349 63 377 Q79 405 95.5 431.5 Q112 458 130 483 Q148 508 168 534 Q172 539 178.5 546 Q185 553 190 551 Q195 549 195 545 Q196 539 195 536.5 Q194 534 188 538 Q174 523 153 491 Q132 459 110.5 423 Q89 387 69.5 352.5 Q50 318 41 299 Q35 287 29 272 Q23 257 19 242.5 Q15 228 13.5 216.5 Q12 205 15 199 Q17 194 23 194 Q29 194 40 200 Q51 206 63.5 215 Q76 224 88.5 234 Q101 244 110 252 Q124 263 137 274 Q150 285 163 296 Q167 298 168 302 Q188 350 208.5 396 Q229 442 249 490 Q255 505 261 520.5 Q267 536 273 551 Q275 555 275.5 558.5 Q276 562 278 566 Q278 570 283 570 Q291 569 290 560 Q286 540 278 520 Q258 469 236.5 419.5 Q215 370 195 319 Q204 323 209 321 Q217 319 217 314 Q217 309 210 307 Q202 304 202 310 Q198 308 194.5 305 Q191 302 187 299 Q186 298 184 294 Q154 223 130 151.5 Q106 80 82 7 Q78 -2 78 -12 Q77 -22 68 -17 Q64 -15 64 -9 Q66 -4 66.5 0.5 Q67 5 69 10 Q90 76 110.5 142 Q131 208 157 274 Z " />
<glyph glyph-name="five" unicode="5" horiz-adv-x="261" d="M106 189 Q101 187 99.5 191 Q98 195 102 201 Q105 210 104 215 Q88 212 69.5 197.5 Q51 183 38 164 Q27 147 16 128.5 Q5 110 -3 90.5 Q-11 71 -14.5 51 Q-18 31 -13 12 Q-9 0 -2 -3.5 Q5 -7 16 -5 Q39 1 55.5 17 Q72 33 86 50 Q122 99 146.5 155.5 Q171 212 184 269 Q188 289 191 309 Q194 329 189 348 Q186 357 183.5 358 Q181 359 172 356 Q157 348 136.5 332.5 Q116 317 100 304 Q86 294 74.5 285.5 Q63 277 53 279 Q36 279 34 301 Q32 323 43.5 352.5 Q55 382 72 413 Q89 444 108 471.5 Q127 499 140 516 Q144 521 147.5 526 Q151 531 155 536 Q146 545 157 548 Q168 550 178 562 Q185 568 187.5 569.5 Q190 571 192 570 Q198 569 198 565.5 Q198 562 198 558 Q221 561 245 562 Q269 563 286 549 Q292 544 291.5 535.5 Q291 527 287 526 Q282 524 280.5 527.5 Q279 531 281 535 Q287 546 276 548 Q252 554 228.5 551.5 Q205 549 181 544 Q176 542 175 540 Q161 521 137.5 488 Q114 455 93 418.5 Q72 382 58.5 347 Q45 312 50 290 Q56 293 66.5 299.5 Q77 306 88.5 314.5 Q100 323 111.5 332 Q123 341 132 348 Q143 356 154 362.5 Q165 369 176 369 Q192 369 200 354 Q206 338 206 322 Q206 306 204 290 Q193 227 171 168 Q149 109 111 56 Q92 30 72.5 10.5 Q53 -9 30 -14 Q7 -21 -15 -5 Q-27 6 -29 25 Q-31 47 -26 69.5 Q-21 92 -11.5 113 Q-2 134 11 152.5 Q24 171 38 187 Q44 193 52 200.5 Q60 208 69.5 214 Q79 220 88.5 223 Q98 226 107 222 Q117 219 115 207 Q114 202 112 196 Q110 190 106 189 Z " />
<glyph glyph-name="six" unicode="6" horiz-adv-x="279" d="M66 18 Q53 24 50 40 Q42 91 54 146 Q66 201 96 241 Q105 252 116.5 261 Q128 270 142 270 Q166 270 178 249 Q189 232 187.5 210.5 Q186 189 181 172 Q166 125 143.5 83.5 Q121 42 86 14 Q78 8 69 4 Q60 0 49 0 Q18 1 3.5 20 Q-11 39 -16 63 Q-23 120 -5.5 188.5 Q12 257 43.5 323 Q75 389 116 447 Q157 505 199 541 Q217 555 235 565 Q253 575 270 572 Q280 569 285 562.5 Q290 556 291.5 548.5 Q293 541 291.5 532.5 Q290 524 287 517 Q279 494 267.5 473.5 Q256 453 242 434 Q239 429 235.5 426 Q232 423 228 419 Q225 417 223.5 418.5 Q222 420 220 421 Q217 423 218.5 425 Q220 427 222 429 Q227 435 231.5 440.5 Q236 446 240 452 Q250 468 258.5 484.5 Q267 501 274 518 Q275 522 277.5 529.5 Q280 537 280.5 544 Q281 551 279 556.5 Q277 562 270 564 Q254 564 240.5 555.5 Q227 547 216 539 Q175 499 132 439 Q89 379 56 312 Q23 245 5.5 177.5 Q-12 110 -1 55 Q4 40 14 25 Q24 10 40 10 Q51 11 66 18 Z M62 35 Q62 31 65 27 Q66 25 71.5 27 Q77 29 79 28 Q80 28 82 30 Q116 62 137.5 101.5 Q159 141 170 185 Q175 202 175.5 222 Q176 242 163 255 Q161 257 159 258 Q157 259 154 259 Q142 263 130.5 254.5 Q119 246 112 238 Q81 193 67.5 139 Q54 85 62 35 Z " />
<glyph glyph-name="seven" unicode="7" horiz-adv-x="320" d="M316 630 Q344 624 344 595 Q346 566 333.5 538 Q321 510 308 486 Q292 457 275 429.5 Q258 402 240 374 Q232 363 225.5 351.5 Q219 340 211 328 Q230 328 246 327.5 Q262 327 276 322 Q284 320 288 314.5 Q292 309 289 302 Q284 295 282 292.5 Q280 290 276 293 Q274 294 273.5 296 Q273 298 275 299 Q276 301 277 302.5 Q278 304 279 306 Q284 314 275 315 Q239 322 204 318 Q167 262 131.5 206 Q96 150 61 93 Q41 58 22 23 Q3 -12 -14 -49 Q-19 -60 -23.5 -70 Q-28 -80 -28 -90 Q-25 -89 -21 -89 Q-17 -89 -15 -91 Q-11 -93 -15 -97 Q-20 -102 -26.5 -102 Q-33 -102 -38 -97 Q-43 -92 -41.5 -81 Q-40 -70 -35 -57 Q-30 -44 -24 -32.5 Q-18 -21 -15 -14 Q26 74 76 155 Q126 236 180 317 Q169 316 150 314 Q131 312 110.5 309 Q90 306 72.5 304 Q55 302 46 301 Q43 300 39 301 Q35 302 35 305 Q35 309 37 308.5 Q39 308 42 310 Q77 315 112.5 320 Q148 325 184 327 Q186 327 188 329 Q217 374 246 418 Q275 462 301 509 Q312 529 321 556.5 Q330 584 330 601 Q329 609 325 615.5 Q321 622 313 622 Q288 624 265 613 Q242 602 222 589 Q182 563 149 530.5 Q116 498 102 456 Q100 451 103.5 446.5 Q107 442 104 439 Q100 435 96.5 439.5 Q93 444 91 449 Q89 458 94 471 Q99 484 107.5 497.5 Q116 511 126 523 Q136 535 143 543 Q166 567 192.5 586 Q219 605 250 619 Q266 626 282.5 630 Q299 634 316 630 Z " />
<glyph glyph-name="eight" unicode="8" horiz-adv-x="230" d="M257 503 Q257 481 244.5 453.5 Q232 426 213 399.5 Q194 373 173 349.5 Q152 326 135 311 Q129 306 124 302 Q119 298 113 293 Q111 292 107.5 294 Q104 296 104 298 Q101 298 109 306 Q123 319 137 332 Q151 345 165 359 Q177 372 190 387.5 Q203 403 214.5 420.5 Q226 438 234.5 456.5 Q243 475 246 494 Q248 506 243.5 518 Q239 530 223 532 Q197 532 172.5 519.5 Q148 507 127.5 487.5 Q107 468 90.5 444.5 Q74 421 64 398 Q56 378 58 360.5 Q60 343 67.5 326.5 Q75 310 86.5 294.5 Q98 279 110 263 Q127 237 136.5 205.5 Q146 174 134 132 Q129 115 118.5 96.5 Q108 78 94 62.5 Q80 47 62 35.5 Q44 24 25 21 Q13 19 -2 23 Q-17 27 -26 38 Q-44 62 -40 94.5 Q-36 127 -18.5 159.5 Q-1 192 23.5 219.5 Q48 247 70 259 Q75 262 83.5 264 Q92 266 96 258 Q99 251 95 244 Q88 247 87 247.5 Q86 248 87 255 Q72 251 56 237 Q40 223 25 204 Q10 185 -2 162.5 Q-14 140 -20.5 118 Q-27 96 -27 76 Q-27 56 -17 42 Q-7 29 11 31 Q29 34 46 44 Q63 54 77 69 Q91 84 102 102 Q113 120 120 138 Q134 173 124 207.5 Q114 242 90 273 Q79 286 69 301 Q59 316 52.5 332.5 Q46 349 45 366.5 Q44 384 50 402 Q56 421 75 447.5 Q94 474 120 496.5 Q146 519 176 531.5 Q206 544 235 535 Q255 528 257 503 Z " />
<glyph glyph-name="nine" unicode="9" horiz-adv-x="270" d="M294 609 Q297 607 297 603 Q297 599 296 596 Q293 576 288.5 555 Q284 534 279 514 Q265 458 250.5 403 Q236 348 218 294 Q201 244 182 196 Q163 148 139 101 Q131 85 120.5 65 Q110 45 97 26 Q84 7 67.5 -8.5 Q51 -24 32 -30 Q12 -38 -10 -28 Q-32 -18 -38 8 Q-46 43 -32 82.5 Q-18 122 9 151 Q29 171 58 184.5 Q87 198 116 193 Q123 192 125 188.5 Q127 185 126 182 Q125 179 122.5 177 Q120 175 119 177 Q117 179 117.5 183 Q118 187 111 187 Q61 187 20 144 Q9 132 -3 112 Q-15 92 -21.5 68.5 Q-28 45 -27.5 22.5 Q-27 0 -13 -16 Q-8 -23 -0.5 -24 Q7 -25 15 -23 Q35 -18 54 1 Q73 20 89.5 44.5 Q106 69 119 96 Q132 123 141 143 Q168 202 189.5 262 Q211 322 228 385 Q239 423 248.5 461 Q258 499 268 537 Q263 523 259 508 Q255 493 250 479 Q248 475 249 474 Q253 469 246.5 469.5 Q240 470 238 471 L235 465 Q227 450 216.5 428.5 Q206 407 192.5 386 Q179 365 163 347.5 Q147 330 128 322 Q111 314 93 321.5 Q75 329 69 349 Q60 376 64 405 Q68 434 80.5 462 Q93 490 111.5 515 Q130 540 150 559 Q166 572 184.5 582 Q203 592 225 590 Q253 587 262 560 Q267 571 271 582 Q275 593 281 606 Q283 610 286.5 610.5 Q290 611 294 609 Z M250 529 Q253 536 252.5 545 Q252 554 249 562 Q246 570 239.5 576 Q233 582 224 582 Q207 582 191 573.5 Q175 565 161 551 Q145 536 126.5 510 Q108 484 94.5 453.5 Q81 423 78 391.5 Q75 360 91 335 Q96 327 103.5 328 Q111 329 118 331 Q141 341 161 364 Q181 387 197.5 415.5 Q214 444 227 474 Q240 504 250 529 Z " />
<glyph glyph-name="colon" unicode="&#x3a;" horiz-adv-x="156" d="M82 327 Q75 325 69.5 329 Q64 333 66 342 Q68 353 81 353 Q88 353 91 349.5 Q94 346 94 343 Q94 335 90.5 332 Q87 329 82 327 Z M50 233 Q47 226 40 229 Q35 231 33 233.5 Q31 236 33 243 Q34 248 38 256 Q40 261 48 259 Q55 257 55 252 Q55 246 53.5 241 Q52 236 50 233 Z " />
<glyph glyph-name="semicolon" unicode="&#x3b;" horiz-adv-x="146" d="M29 202 Q27 200 24 202.5 Q21 205 22 207 Q27 220 34 233 Q41 246 48 258 Q51 262 52.5 264 Q54 266 59 264 Q64 261 61 257 Q50 244 43.5 230 Q37 216 29 202 Z M62 326 Q56 329 60 336 Q61 340 67 339 Q72 339 74 334 Q75 329 71 326.5 Q67 324 62 326 Z " />
<glyph glyph-name="less" unicode="&#x3c;" horiz-adv-x="301" d="M52 280 Q101 304 146 330 Q191 356 235 387 Q242 392 247 391 Q253 390 250 384.5 Q247 379 245 377 Q243 375 240.5 375.5 Q238 376 236 377 Q193 347 149 320 Q105 293 57 273 Q60 264 66.5 252 Q73 240 80 228 Q87 216 94 204.5 Q101 193 107 186 Q125 163 144.5 143 Q164 123 186 118 Q191 116 190 114 Q187 110 183 112 Q162 116 143.5 129.5 Q125 143 109.5 160.5 Q94 178 81.5 197.5 Q69 217 61 234 Q56 242 52.5 250.5 Q49 259 44 267 Q33 265 23 260.5 Q13 256 2 260 Q-3 262 -3.5 266.5 Q-4 271 1 277 Q12 289 27 291 Q34 292 41.5 289 Q49 286 52 280 Z M40 276 Q33 283 30 283 Q25 282 19 278.5 Q13 275 10 271 Q6 265 11 267 Q25 269 40 276 Z " />
<glyph glyph-name="equal" unicode="&#x3d;" horiz-adv-x="235" d="M32 272 Q61 273 86 273.5 Q111 274 135 269 Q140 268 140.5 266.5 Q141 265 140 264 Q138 262 134 262 Q114 264 94 263.5 Q74 263 53 263 Q38 263 31 266 Q23 272 32 272 Z M58 325 Q81 326 100 325.5 Q119 325 148 324 Q154 324 154 321 Q154 317 152 316 L148 316 Q128 316 108.5 316.5 Q89 317 69 316 Q59 316 55 318 Q48 325 58 325 Z " />
<glyph glyph-name="greater" unicode="&#x3e;" horiz-adv-x="350" d="M310 329 Q314 323 312.5 316.5 Q311 310 305.5 304.5 Q300 299 292.5 296 Q285 293 278 294 Q273 295 267 296.5 Q261 298 254 300 Q188 247 116.5 204 Q45 161 -30 122 Q-36 120 -38.5 127 Q-41 134 -29 137 Q38 178 107.5 217.5 Q177 257 239 309 Q233 312 220 321 Q207 330 192 341 Q177 352 163.5 363.5 Q150 375 142 382 Q134 390 125.5 397.5 Q117 405 108 414 Q104 418 107 421 Q109 425 114 423 Q121 420 118 415 L119 414 Q148 388 177 362.5 Q206 337 241 317 Q247 314 252 318 Q260 324 269 329.5 Q278 335 289 337 Q301 338 310 329 Z M266 307 Q278 302 288.5 308 Q299 314 302 327 Q290 325 281.5 319.5 Q273 314 265 308 Q265 307 266 307 Z " />
<glyph glyph-name="question" unicode="&#x3f;" horiz-adv-x="357" d="M393 639 Q407 631 412 617.5 Q417 604 415 587 Q412 567 402 552 Q383 518 353.5 489 Q324 460 292 428 Q241 378 187 325 Q133 272 86 202 Q82 196 73.5 181.5 Q65 167 57 151 Q49 135 44 121 Q39 107 42 101 Q45 100 47 100.5 Q49 101 51 100 Q55 98 55 96 Q56 94 51 92 Q44 90 37.5 95 Q31 100 30 108 Q30 127 39.5 146.5 Q49 166 63 192 Q102 257 154 312 Q206 367 263 422 Q294 451 326.5 481 Q359 511 384 549 Q390 558 395.5 571 Q401 584 402.5 596.5 Q404 609 399.5 620.5 Q395 632 380 638 Q354 649 319.5 644.5 Q285 640 250 626.5 Q215 613 184 592 Q153 571 133 549 Q108 523 95 490 Q90 477 89 460.5 Q88 444 96 430 Q98 431 99.5 432 Q101 433 103 435 Q105 436 106.5 438.5 Q108 441 110 440 Q115 438 115.5 436 Q116 434 114 431.5 Q112 429 109.5 427.5 Q107 426 106 425 Q102 422 100 422.5 Q98 423 93 425 Q86 427 82.5 439.5 Q79 452 79 463 Q81 500 104 532 Q127 564 156 588 Q177 604 206 620 Q235 636 267 645.5 Q299 655 331.5 655 Q364 655 393 639 Z M26 43 Q31 41 31 41 Q31 41 31 37 Q29 33 26.5 27 Q24 21 22 18 Q20 14 21.5 10.5 Q23 7 20 5 Q14 1 12.5 7.5 Q11 14 13 20 Q15 25 16.5 30 Q18 35 20 40 Q21 44 26 43 Z " />
<glyph glyph-name="at" unicode="&#x40;" horiz-adv-x="411" d="M218 162 Q216 163 215.5 163.5 Q215 164 213 165 Q211 166 211 169 Q213 175 215 181 Q217 187 222 192 Q234 205 251 201 Q265 197 265 184 Q267 161 256.5 140 Q246 119 235 101 Q222 82 207.5 65.5 Q193 49 175 35 Q146 14 115 7 Q81 1 57 10 Q33 19 18 38.5 Q3 58 -4 84.5 Q-11 111 -11 138 Q-6 233 29 318 Q64 403 120 472 Q137 492 155 509 Q173 526 194 540 Q215 553 239.5 561 Q264 569 287 568.5 Q310 568 330.5 557 Q351 546 364 521 Q378 496 382 468.5 Q386 441 384 414 Q381 379 366.5 345.5 Q352 312 332 286 Q321 273 305 260 Q289 247 272 247 Q261 248 252 255 Q243 262 243 276 Q243 281 243.5 286.5 Q244 292 245 298 Q225 277 208 260 Q191 243 170 238 Q161 237 150.5 244.5 Q140 252 138 266 Q135 293 147.5 318.5 Q160 344 175 364 Q197 390 222 408.5 Q247 427 273 422 Q288 416 290 399 Q289 387 285 376.5 Q281 366 275 356 Q275 353 273 351 L274 350 Q280 346 278 340 Q274 335 273 329 Q268 319 264 309 Q260 299 257 288 Q256 282 255.5 276.5 Q255 271 257 266 Q260 255 270 258 Q285 263 297 272 Q309 281 318 292 Q338 318 352 347.5 Q366 377 371 410 Q376 444 370 479.5 Q364 515 341 540 Q330 552 316.5 557 Q303 562 288.5 562 Q274 562 259.5 558.5 Q245 555 233 549 Q185 526 149.5 486 Q114 446 87 403 Q49 339 25.5 269 Q2 199 2 128 Q4 104 8 82 Q12 60 26 43 Q39 26 56.5 19.5 Q74 13 95 15 Q116 18 134.5 26.5 Q153 35 169 48 Q222 92 246 153 Q253 170 254 184 Q254 188 253 189 Q253 195 247 194 Q238 194 230 186 Q226 182 224.5 178 Q223 174 221 169 Q219 165 218 162 Z M255 334 Q253 338 255 343 Q259 350 262.5 356.5 Q266 363 269 370 Q273 378 276.5 388.5 Q280 399 278 408 Q277 413 270 415 Q261 415 254 412 Q224 401 202.5 376.5 Q181 352 167 326 Q156 308 152 287 Q151 280 150.5 273.5 Q150 267 152 260 Q155 244 170 251 Q197 265 218 288 Q239 311 255 334 Z " />
<glyph glyph-name="A" unicode="A" horiz-adv-x="383" d="M-82 31 Q-59 81 -27 122 Q-1 156 30.5 184 Q62 212 99 237 Q107 242 108 248 Q139 315 174 378.5 Q209 442 247 504 Q272 543 299 580 Q326 617 356 652 Q369 667 384.5 682 Q400 697 415 709.5 Q430 722 445 730.5 Q460 739 474 741 Q482 742 486.5 736.5 Q491 731 490 724 Q489 709 481.5 688 Q474 667 463 644.5 Q452 622 439.5 600 Q427 578 416 560 Q384 500 353.5 439.5 Q323 379 297 317 Q311 318 329.5 315 Q348 312 357 300 Q361 296 358 293 Q357 292 350 296 Q335 304 321 306.5 Q307 309 292 307 Q264 244 240.5 181.5 Q217 119 197 53 Q181 3 170 -45.5 Q159 -94 156 -144 Q156 -158 156.5 -167 Q157 -176 160 -183 Q162 -180 166 -175.5 Q170 -171 174 -174 Q179 -177 176 -181 Q174 -184 172 -186.5 Q170 -189 168 -191 Q165 -194 159 -192 Q151 -190 147.5 -177 Q144 -164 144 -155 Q142 -96 154.5 -40 Q167 16 184 70 Q202 133 224 190.5 Q246 248 270 304 Q226 292 189.5 274 Q153 256 120 235 Q116 234 114 229 Q100 197 86.5 166.5 Q73 136 59 104 Q46 75 33 47.5 Q20 20 4 -7 Q-1 -17 -9.5 -29 Q-18 -41 -27.5 -51.5 Q-37 -62 -47 -69.5 Q-57 -77 -64 -78 Q-72 -80 -81 -75.5 Q-90 -71 -94 -63 Q-104 -40 -97.5 -15 Q-91 10 -82 31 Z M477 732 Q466 731 453 723 Q440 715 426.5 704 Q413 693 400.5 680.5 Q388 668 380 659 Q352 628 327 596 Q302 564 279 529 Q235 463 197 394 Q159 325 125 253 Q163 273 199 290 Q235 307 276 315 Q296 358 316 400.5 Q336 443 359 486 Q377 519 395.5 551.5 Q414 584 433 617 Q436 623 444 639.5 Q452 656 460 674 Q468 692 473.5 708.5 Q479 725 477 732 Z M93 217 Q81 209 70.5 200 Q60 191 49 183 Q5 143 -31.5 94 Q-68 45 -82 -10 Q-85 -26 -86 -38.5 Q-87 -51 -81 -64 Q-75 -71 -68 -69 Q-63 -68 -56 -62 Q-49 -56 -42 -48.5 Q-35 -41 -29 -33 Q-23 -25 -19 -18 Q16 39 43 100.5 Q70 162 93 217 Z " />
<glyph glyph-name="B" unicode="B" horiz-adv-x="358" d="M70 245 Q86 257 97.5 272 Q109 287 118 304 Q161 376 197 438.5 Q233 501 277 557 Q289 572 306.5 593 Q324 614 344 634 Q364 654 385 669 Q406 684 424 688 Q436 691 446 683 Q452 678 452 670 Q453 658 447.5 644 Q442 630 433.5 616.5 Q425 603 415 590.5 Q405 578 397 569 Q380 551 363.5 532.5 Q347 514 330 496 Q304 467 278.5 439 Q253 411 236 378 Q217 345 234 312 Q247 288 257.5 266.5 Q268 245 274 224 Q280 203 281 181.5 Q282 160 276 136 Q259 68 219.5 11.5 Q180 -45 129 -87 Q97 -114 58.5 -133.5 Q20 -153 -20 -151 Q-58 -146 -80.5 -123.5 Q-103 -101 -106 -65 Q-108 -26 -96.5 9.5 Q-85 45 -65 76.5 Q-45 108 -18 133 Q9 158 40 176 Q69 192 98.5 198.5 Q128 205 157 208 Q165 209 173.5 208 Q182 207 188 201 Q192 196 191.5 191 Q191 186 185 189 Q182 190 182 194 Q181 199 176 200 Q172 200 168.5 200.5 Q165 201 161 200 Q118 195 79.5 181 Q41 167 8 138 Q-14 118 -33.5 94.5 Q-53 71 -67 45 Q-81 19 -88 -9.5 Q-95 -38 -93 -67 Q-91 -94 -76.5 -115 Q-62 -136 -34 -139 Q7 -143 43.5 -124.5 Q80 -106 109 -83 Q137 -59 164 -30 Q191 -1 212.5 30.5 Q234 62 248.5 97 Q263 132 266 168 Q268 190 264.5 209 Q261 228 254 245 Q247 262 238.5 278.5 Q230 295 221 312 Q213 327 211 344.5 Q209 362 217 377 Q231 407 251.5 431.5 Q272 456 293 479 Q313 500 332 520.5 Q351 541 371 561 Q381 573 393 586.5 Q405 600 414.5 614 Q424 628 431 642 Q438 656 440 668 Q441 682 428 679 Q412 676 392 660.5 Q372 645 352.5 625.5 Q333 606 316 586 Q299 566 289 553 Q239 488 203 425 Q167 362 131 300 Q122 283 112.5 269 Q103 255 90 244 Q79 233 68 238 Q54 242 54 259 Q53 271 56.5 286.5 Q60 302 66 318.5 Q72 335 79 351 Q86 367 92 381 Q96 390 100.5 398.5 Q105 407 110 416 Q112 420 110 422 Q110 426 111 427 Q120 443 130 455 Q131 459 138 457 Q143 454 140 450 Q138 444 136 440 Q125 419 114.5 398.5 Q104 378 95 356 Q90 343 84.5 327.5 Q79 312 75 297 Q71 282 69 268.5 Q67 255 70 245 Z " />
<glyph glyph-name="C" unicode="C" horiz-adv-x="416" d="M428 556 Q431 527 422 494 Q413 461 398 428.5 Q383 396 363.5 366.5 Q344 337 325 315 Q314 304 300 290.5 Q286 277 269 275 Q259 274 252 280 Q245 286 243 296 Q241 307 244 318.5 Q247 330 252 341 Q263 364 276.5 385 Q290 406 305 426 Q307 428 309.5 429 Q312 430 314 427 Q316 425 315 424 Q314 423 314 422 Q310 414 307 410 Q305 405 303 406 Q301 406 301 404 Q288 384 277 364.5 Q266 345 258 323 Q257 320 255.5 312.5 Q254 305 254 298 Q254 291 257 287 Q260 283 268 286 Q285 291 299.5 306.5 Q314 322 327 338 Q342 357 360 385.5 Q378 414 392 446.5 Q406 479 413.5 511.5 Q421 544 414 572 Q410 586 399.5 597 Q389 608 371 609 Q335 613 296 596 Q257 579 225 551 Q170 503 120 429.5 Q70 356 41 269 Q32 243 22.5 205.5 Q13 168 10 129 Q7 90 13.5 53.5 Q20 17 42 -7 Q65 -31 98 -28 Q134 -26 170 -4 Q206 18 237.5 50.5 Q269 83 293.5 120.5 Q318 158 331 190 Q336 201 340 218 Q344 235 336 248 Q332 254 324 253.5 Q316 253 309 251 Q282 237 269 200 Q269 195 268 191 Q270 190 273 189.5 Q276 189 276 186 Q276 182 270 182 Q258 185 258 195 Q258 205 262.5 216 Q267 227 274.5 237 Q282 247 292 254 Q302 261 313 263 Q329 266 338 259.5 Q347 253 350.5 241 Q354 229 352.5 215 Q351 201 347 189 Q336 157 310.5 117 Q285 77 251.5 42.5 Q218 8 178.5 -15.5 Q139 -39 100 -39 Q49 -39 21 6 Q13 18 9 31 Q5 44 2 58 Q-9 115 2 174 Q13 233 33 290 Q60 365 106.5 435.5 Q153 506 213 557 Q228 569 245.5 580.5 Q263 592 282.5 601 Q302 610 322.5 615 Q343 620 364 618 Q391 616 408.5 599 Q426 582 428 556 Z " />
<glyph glyph-name="D" unicode="D" horiz-adv-x="434" d="M458 652 Q485 644 490 621 Q495 598 490 577 Q473 505 433.5 424 Q394 343 338.5 267.5 Q283 192 215.5 130 Q148 68 76 34 Q72 32 70 27 Q62 4 54 -18 Q46 -40 35 -62 Q28 -75 22 -85 Q16 -95 6 -93 Q-3 -93 -2 -81 Q-1 -69 1 -62 Q6 -41 11.5 -21.5 Q17 -2 24 18 Q-7 10 -34 22 Q-58 34 -58 61 Q-59 87 -44.5 108.5 Q-30 130 -13 146 Q10 165 36.5 182.5 Q63 200 91 207 Q95 208 96 211 Q99 219 102 227 Q105 235 109 243 Q109 244 109.5 245 Q110 246 110 247 Q111 267 109.5 287.5 Q108 308 95 323 Q84 337 62 334 Q61 334 57 332 Q50 329 44 327 Q38 325 32 330 Q25 335 32.5 338 Q40 341 44 341 Q50 342 58 347 Q86 364 109 391 Q124 407 138 422.5 Q152 438 167 454 Q181 469 195.5 484 Q210 499 224 515 Q225 517 226 518 Q227 519 228 521 Q243 550 257.5 580 Q272 610 287 639 Q288 643 292 649.5 Q296 656 294 659 Q293 660 293 663 Q296 677 304 688 Q311 697 318 688 Q322 683 317 671.5 Q312 660 310 656 Q297 630 285 604 Q273 578 260 552 Q279 567 303 587 Q327 607 353.5 623.5 Q380 640 407 649 Q434 658 458 652 Z M76 48 Q118 66 159.5 99.5 Q201 133 240.5 175.5 Q280 218 315.5 267 Q351 316 380.5 366 Q410 416 433 463.5 Q456 511 469 551 Q472 560 475.5 575.5 Q479 591 479 606 Q479 621 473.5 632 Q468 643 453 645 Q427 647 398 634 Q369 621 341 601 Q313 581 288.5 558.5 Q264 536 248 521 Q246 518 244 515.5 Q242 513 240 510 Q225 475 209.5 441 Q194 407 179 372 Q164 337 149.5 301.5 Q135 266 121 231 Q119 227 119 223.5 Q119 220 118 216 Q126 218 134 219.5 Q142 221 150 218 Q156 216 158.5 208 Q161 200 157 199 Q155 198 152.5 200.5 Q150 203 150 206 Q150 212 144 212 Q137 211 131 209.5 Q125 208 118 206 Q116 204 116 202 Q107 162 97.5 124 Q88 86 76 48 Z M89 194 Q67 186 47.5 174 Q28 162 10 149 Q-1 139 -12 128 Q-23 117 -31.5 105 Q-40 93 -44 79.5 Q-48 66 -46 51 Q-40 25 -15 25 Q-4 24 5.5 26 Q15 28 25 30 Q28 30 30 35 Q45 75 60 114.5 Q75 154 89 194 Z M208 480 Q189 460 171.5 440.5 Q154 421 137 401 Q123 385 107 370.5 Q91 356 74 343 Q86 338 96.5 331.5 Q107 325 112 313 Q116 304 118.5 294.5 Q121 285 121 276 L208 480 Z M47 36 Q53 39 56 39 Q60 40 62 45 Q70 72 79 102.5 Q88 133 93 161 Q82 130 70.5 99 Q59 68 47 36 Z M14 -71 Q17 -68 23.5 -54.5 Q30 -41 36.5 -25 Q43 -9 48.5 5.5 Q54 20 55 26 Q52 25 50 24.5 Q48 24 46 23 Q43 23 41 19 Q33 -5 26 -26.5 Q19 -48 14 -71 Z " />
<glyph glyph-name="E" unicode="E" horiz-adv-x="385" d="M238 195 Q228 184 220.5 173.5 Q213 163 206 152 Q183 118 161 84 Q139 50 117 15 Q106 -2 95 -18.5 Q84 -35 71 -50 Q56 -67 40 -81 Q24 -95 4 -99 Q-24 -106 -47 -85 Q-55 -77 -58 -66 Q-61 -55 -60.5 -43 Q-60 -31 -57 -19.5 Q-54 -8 -51 1 Q-30 52 3.5 93 Q37 134 75 168 Q83 176 90 182 Q97 188 101 196 Q105 201 100 206 Q95 213 88 217.5 Q81 222 76 227 Q56 245 44 267 Q32 289 32 315 Q31 350 45 388 Q71 459 116 520 Q161 581 217 629 Q250 658 286 680 Q322 702 363 707 Q395 712 421 701 Q458 686 461 646 Q463 634 459 615 Q455 596 447.5 575 Q440 554 430.5 533.5 Q421 513 412 498 Q396 471 372.5 437.5 Q349 404 322.5 373 Q296 342 269 318.5 Q242 295 218 289 Q198 283 182 295 Q176 299 173.5 305 Q171 311 170 318 Q168 339 179 364.5 Q190 390 207 414.5 Q224 439 244 460.5 Q264 482 281 496 Q292 504 301 510 Q310 516 321 518 Q332 521 341 514 Q346 509 345 503 Q344 497 341 492 Q327 465 305 447 Q303 443 298 443 Q293 443 291 446 Q288 451 293 453.5 Q298 456 300 458 Q304 462 310.5 468.5 Q317 475 322 482 Q327 489 330 496 Q333 503 332 509 Q312 504 299.5 494 Q287 484 276 473 Q264 461 245.5 439.5 Q227 418 211.5 393 Q196 368 187 345 Q178 322 186 307 Q192 299 202 299.5 Q212 300 222.5 304 Q233 308 243 314 Q253 320 258 325 Q282 345 306 372 Q330 399 351.5 429 Q373 459 391 489 Q409 519 421 546 Q435 575 444 603.5 Q453 632 448 658 Q443 676 432 685 Q421 694 404 698 Q364 702 326.5 685.5 Q289 669 260 647 Q210 609 167 558 Q124 506 93.5 454.5 Q63 403 49 347 Q44 319 48 290.5 Q52 262 73 243 Q80 236 86.5 230 Q93 224 100 218 Q103 215 106 212.5 Q109 210 112 207 Q120 199 114 189 Q111 181 105 177 Q100 172 94 166.5 Q88 161 82 155 Q42 117 7.5 73 Q-27 29 -41 -20 Q-46 -34 -47 -49 Q-48 -64 -40 -76 Q-31 -91 -16 -89 Q-1 -87 12 -82 Q22 -77 30.5 -70 Q39 -63 47 -55 Q73 -26 93.5 5 Q114 36 134 66 Q151 92 169 118.5 Q187 145 205 171 Q210 179 217 189 Q224 199 232 203 Q237 207 243 201 Q249 195 245.5 194 Q242 193 238 195 Z " />
<glyph glyph-name="F" unicode="F" horiz-adv-x="413" d="M266 613 Q283 639 298.5 664.5 Q314 690 333 713 Q340 720 343 723.5 Q346 727 353 725 Q361 723 357.5 714.5 Q354 706 351 702 Q336 679 322.5 658 Q309 637 295 616 Q307 617 332 618.5 Q357 620 387.5 621 Q418 622 451 623.5 Q484 625 513 626 Q542 627 563.5 627 Q585 627 592 627 Q606 627 609 622 Q611 620 609 617 Q609 615 605 617 Q602 619 595 619 Q581 619 554 618 Q527 617 495 615.5 Q463 614 428.5 612.5 Q394 611 365 609.5 Q336 608 315.5 606 Q295 604 290 603 L290 591 Q284 592 282.5 595 Q281 598 281 603 Q275 604 274 600 Q266 586 259 572.5 Q252 559 244 545 Q244 543 243.5 542 Q243 541 243 540 Q241 513 235.5 487.5 Q230 462 225 436 Q244 439 268 443.5 Q292 448 316.5 450 Q341 452 363.5 451.5 Q386 451 403 445 Q407 444 413 440 Q418 436 417 430 Q416 424 414 420 Q409 414 402.5 408 Q396 402 390 408 Q387 410 391 413 Q395 416 397 418 Q402 422 407 430 Q409 437 402 438 Q380 443 357.5 443 Q335 443 312.5 440 Q290 437 268.5 432.5 Q247 428 226 425 Q222 424 220 418 Q206 373 193.5 328 Q181 283 167 238 Q150 182 132 128 Q114 74 93 20 Q85 0 77.5 -18.5 Q70 -37 59 -56 Q57 -60 52.5 -66.5 Q48 -73 43 -79.5 Q38 -86 32.5 -90.5 Q27 -95 23 -93 Q18 -91 14 -89 Q10 -87 8 -82 Q3 -66 6 -48.5 Q9 -31 13 -15 Q21 15 30 44.5 Q39 74 49 103 Q75 181 105 258 Q135 335 167 411 Q143 406 119.5 400 Q96 394 73 388 Q62 385 51 384 Q40 383 34 386 Q27 391 33 397 Q40 404 52.5 409 Q65 414 77 417 Q87 419 97 421 Q107 423 115 421 Q119 421 119 417 Q119 415 114 415 Q98 413 77.5 406.5 Q57 400 49 394 Q69 397 88 403 Q107 409 127 414 Q138 417 148 419.5 Q158 422 169 424 Q174 426 175 429 Q187 456 199.5 482.5 Q212 509 224 535 Q226 537 226.5 539.5 Q227 542 229 544 Q233 551 233 562 Q233 572 232.5 581.5 Q232 591 230 601 Q217 601 202.5 601 Q188 601 174.5 602.5 Q161 604 149 607.5 Q137 611 129 619 Q124 624 124.5 631 Q125 638 129 643 Q143 657 160.5 660.5 Q178 664 193.5 658.5 Q209 653 221.5 641 Q234 629 238 612 Q245 612 252 612 Q259 612 266 613 Z M209 421 Q204 420 199.5 419 Q195 418 190 417 Q184 417 181 410 Q145 324 112.5 238.5 Q80 153 51 65 Q43 41 35.5 17 Q28 -7 23 -31 Q20 -42 18 -59 Q16 -76 21 -84 Q34 -72 44 -56 Q60 -29 70 -3 Q84 31 96.5 65 Q109 99 121 134 Q145 206 167 277 Q189 348 209 421 Z M227 611 Q225 627 216 637.5 Q207 648 194 652 Q181 656 167.5 653 Q154 650 143 640 Q134 628 145 622 Q156 616 173 613.5 Q190 611 207 611 Q224 611 227 611 Z M212 434 Q217 453 221.5 472 Q226 491 228 511 Q226 508 220 495.5 Q214 483 207.5 468.5 Q201 454 196 442.5 Q191 431 191 429 Q196 431 201.5 431.5 Q207 432 212 434 Z M244 574 Q249 582 252 588 Q255 594 260 602 Q255 602 250.5 601.5 Q246 601 241 601 L244 574 Z " />
<glyph glyph-name="G" unicode="G" horiz-adv-x="397" d="M427 576 Q414 532 401.5 489 Q389 446 376 403 Q357 342 336 282.5 Q315 223 289 164 Q271 122 252 81 Q233 40 210 0 Q186 -40 159.5 -77 Q133 -114 95 -139 Q66 -156 36.5 -159.5 Q7 -163 -19 -146 Q-46 -129 -60 -97 Q-71 -70 -74 -40 Q-77 -10 -73.5 19.5 Q-70 49 -60.5 77 Q-51 105 -38 130 Q-19 166 20 200 Q59 234 105 254 Q151 274 196.5 276.5 Q242 279 275 252 Q286 243 286 230 Q286 217 276 206 Q273 204 270 205 Q267 206 268 210 Q269 212 270 213.5 Q271 215 272 217 Q283 234 269 248 Q234 273 185 267 Q136 261 88 234 Q40 207 1.5 166 Q-37 125 -49 80 Q-64 29 -65 -22 Q-66 -73 -40 -115 Q-24 -141 3 -148 Q16 -152 29.5 -150.5 Q43 -149 55.5 -144 Q68 -139 79.5 -132 Q91 -125 101 -117 Q137 -86 162.5 -47 Q188 -8 209 31 Q241 91 267.5 152.5 Q294 214 317 278 Q334 326 349.5 374 Q365 422 379 470 Q391 511 403 551 Q415 591 426 632 Q406 597 386 562.5 Q366 528 345 493 Q321 455 294.5 419.5 Q268 384 239 350 Q217 326 196.5 308 Q176 290 151 280 Q137 275 123.5 282.5 Q110 290 104 298 Q92 316 91.5 342.5 Q91 369 97.5 397.5 Q104 426 115.5 453.5 Q127 481 138 502 Q155 535 175.5 566 Q196 597 221 626 Q234 639 249.5 654.5 Q265 670 283 682.5 Q301 695 320 702 Q339 709 358 705 Q385 697 391 671 Q395 641 386 610 Q377 579 364 553 Q385 585 403 620.5 Q421 656 438 689 Q438 690 438.5 690.5 Q439 691 439 692 Q445 703 454 694 Q456 689 453 674.5 Q450 660 445.5 642 Q441 624 435.5 606 Q430 588 427 576 Z M344 518 Q339 522 338 523.5 Q337 525 339 531 Q340 536 343 542.5 Q346 549 349 554 Q362 581 371.5 612 Q381 643 378 672 Q376 680 372 687 Q368 694 360 696 Q346 698 329.5 691.5 Q313 685 296.5 674 Q280 663 265 650 Q250 637 239 625 Q213 596 192 565 Q171 534 153 500 Q142 477 131 449 Q120 421 113 393 Q106 365 106 339.5 Q106 314 116 298 Q124 287 137 290 Q164 296 185 316.5 Q206 337 223 355 Q273 411 312 469 Q320 481 328 493 Q336 505 344 518 Z " />
<glyph glyph-name="H" unicode="H" horiz-adv-x="298" d="M87 -219 Q88 -217 89 -215 Q90 -213 92 -211 Q94 -209 98.5 -208 Q103 -207 103 -212 Q101 -220 96.5 -226 Q92 -232 87 -231 Q83 -231 79 -228 Q75 -225 75 -220 Q72 -203 75.5 -175.5 Q79 -148 86 -115.5 Q93 -83 102.5 -48.5 Q112 -14 121.5 18 Q131 50 139.5 76.5 Q148 103 154 119 Q177 196 205.5 270.5 Q234 345 262 420 Q224 364 178 315 Q165 301 151 288 Q137 275 122 263 Q118 259 117 256 Q103 223 91 190.5 Q79 158 59 130 Q55 124 46.5 116.5 Q38 109 32 111 Q24 112 20.5 116 Q17 120 15 125 Q5 150 5.5 176 Q6 202 6 227 Q-8 238 -10.5 252 Q-13 266 -11 282 Q-9 288 -7 296.5 Q-5 305 3 305 Q12 303 15 297 Q20 280 19 263 Q18 246 18 230 Q28 227 40 229.5 Q52 232 63.5 238 Q75 244 85 251.5 Q95 259 102 264 Q104 266 106 272 Q120 307 133 343 Q146 379 160 415 Q180 469 199 522 Q218 575 238 629 Q240 635 241.5 640.5 Q243 646 244 652 Q234 642 226.5 630.5 Q219 619 211 608 Q208 602 206.5 594.5 Q205 587 203 586 Q197 586 197 596 Q197 607 207.5 623 Q218 639 227 650 Q235 659 241 665.5 Q247 672 253 671 Q264 669 257 648 Q250 627 243.5 606 Q237 585 229 565 Q211 512 192.5 460.5 Q174 409 155 356 Q150 339 143 322 Q136 305 131 288 Q152 306 170.5 326.5 Q189 347 207 368 Q229 395 249.5 423.5 Q270 452 289 481 Q291 484 292 486.5 Q293 489 295 492 Q321 551 351 607.5 Q381 664 414 720 Q421 729 427 739 Q433 749 439 747 Q442 744 441.5 738 Q441 732 438 724.5 Q435 717 431.5 710.5 Q428 704 427 701 Q402 652 376 604.5 Q350 557 322 510 Q320 506 318 502.5 Q316 499 314 495 Q286 431 261 367 Q236 303 212 237 Q188 168 165 98.5 Q142 29 122 -41 Q118 -55 111.5 -80 Q105 -105 99.5 -132 Q94 -159 90 -183 Q86 -207 87 -219 Z M18 221 Q16 197 17.5 171 Q19 145 25 128 Q29 120 35 126 Q44 133 52 147 Q60 161 67.5 177.5 Q75 194 82 211 Q89 228 94 242 Q85 237 76 232 Q67 227 57.5 223 Q48 219 38 218 Q28 217 18 221 Z M6 289 Q0 278 0.5 262.5 Q1 247 7 241 Q8 253 8 264.5 Q8 276 6 289 Z " />
<glyph glyph-name="I" unicode="I" horiz-adv-x="172" d="M176 578 Q155 574 134 569 Q113 564 93 559 Q89 558 84 561 Q82 564 85 565.5 Q88 567 90 568 Q106 573 121.5 577 Q137 581 153 585 Q162 587 177.5 589 Q193 591 209 591.5 Q225 592 239 590 Q253 588 259 583 Q264 580 265 574.5 Q266 569 260 568 Q256 567 253.5 569.5 Q251 572 254 577 Q251 579 243 580 Q235 581 225.5 581.5 Q216 582 207 581.5 Q198 581 194 580 Q192 566 185 544.5 Q178 523 171 504 Q126 379 81.5 256 Q37 133 2 5 Q17 6 31 7.5 Q45 9 57 5 Q68 0 60 -9 Q54 -5 52 -3 Q44 -1 36.5 -2 Q29 -3 22 -4 Q17 -4 11 -4.5 Q5 -5 1 -7 Q0 -9 0 -9.5 Q0 -10 -1 -12 L-3 -12 Q-9 -7 -19 -9 Q-30 -11 -41 -12 Q-52 -13 -63 -14 Q-68 -15 -74 -14.5 Q-80 -14 -85 -14 Q-90 -14 -97 -9 Q-97 -5 -93.5 -4 Q-90 -3 -84.5 -3 Q-79 -3 -73 -3.5 Q-67 -4 -64 -3 Q-51 -1 -38.5 0 Q-26 1 -12 3 Q22 131 63 256.5 Q104 382 153 506 Q161 527 166 544 Q171 561 176 578 Z " />
<glyph glyph-name="J" unicode="J" horiz-adv-x="372" d="M179 471 Q173 473 167 474.5 Q161 476 156 480 Q149 486 147 496 Q145 514 151 532 Q157 550 165 564 Q178 588 201.5 618 Q225 648 253.5 673.5 Q282 699 313.5 714.5 Q345 730 375 726 Q392 722 403 705 Q407 698 408.5 691 Q410 684 412 677 Q416 650 414 622.5 Q412 595 406 568 Q400 541 392 515 Q384 489 376 465 Q334 340 281.5 222 Q229 104 166 -7 Q151 -33 134.5 -59 Q118 -85 100 -109 Q84 -130 64.5 -148 Q45 -166 22 -176 Q-3 -183 -26 -173 Q-42 -165 -51 -152.5 Q-60 -140 -65 -124 Q-69 -111 -69 -93 Q-69 -75 -67 -56.5 Q-65 -38 -60.5 -19 Q-56 0 -50 16 Q-39 49 -22.5 79.5 Q-6 110 17 137 Q35 158 56.5 174.5 Q78 191 98 199 Q145 214 179 180 Q187 171 193 161 Q199 151 201 139 Q204 121 196 104 L194 102 L193 102 Q187 105 186.5 106.5 Q186 108 188 115 Q195 136 184 158 Q174 173 160.5 184 Q147 195 129 193 Q112 192 96.5 184.5 Q81 177 67 165.5 Q53 154 41 141 Q29 128 19 115 Q-33 44 -51 -44 Q-56 -73 -55 -100 Q-54 -127 -39 -151 Q-24 -172 2 -166 Q31 -159 51.5 -137.5 Q72 -116 88 -95 Q107 -69 123 -42.5 Q139 -16 155 12 Q215 121 263 228 Q311 335 351 444 Q361 471 372 503 Q383 535 390.5 567.5 Q398 600 400.5 631.5 Q403 663 396 690 Q393 700 388 708.5 Q383 717 372 717 Q345 717 315.5 699.5 Q286 682 259 657 Q232 632 210.5 604.5 Q189 577 177 558 Q169 542 162 525 Q155 508 158 493 Q160 483 168 480 L177 477 Q180 476 179 471 Z " />
<glyph glyph-name="K" unicode="K" horiz-adv-x="325" d="M62 239 Q42 208 24 176.5 Q6 145 -11 113 Q-13 109 -14.5 105 Q-16 101 -18 98 Q-21 92 -28 94 Q-36 96 -36.5 100.5 Q-37 105 -35 114 Q-23 177 -2.5 233 Q18 289 40 345 Q68 416 100.5 484 Q133 552 168 619 Q170 624 170 628.5 Q170 633 172 636 Q177 650 183 662 Q189 674 197 685 Q202 691 208 688 Q215 685 212.5 677.5 Q210 670 208 667 L178 604 Q135 519 97 434 Q59 349 27 259 Q32 258 36 257.5 Q40 257 45 257 Q50 257 61 268 Q79 295 98 321 Q117 347 137 373 Q188 441 242.5 505.5 Q297 570 356 633 Q365 643 375 652 Q385 661 395 671 Q397 674 403 678 Q409 682 413 680 Q425 677 421 667 Q412 647 394 620 Q376 593 353.5 564.5 Q331 536 307.5 507 Q284 478 264 454 Q238 422 210.5 391 Q183 360 154 331 Q135 311 116 293 Q97 275 76 259 Q73 257 71 254 Q69 251 67 248 Q85 235 102 221.5 Q119 208 134 192 Q179 146 219 99 Q259 52 300 6 Q327 -23 355 -50.5 Q383 -78 412 -104 Q429 -118 443 -128.5 Q457 -139 472 -148 Q476 -150 480 -149 Q482 -148 487 -149.5 Q492 -151 488 -155 Q485 -159 480 -157 Q477 -157 474.5 -156 Q472 -155 469 -154 Q458 -149 448.5 -142.5 Q439 -136 429 -128 Q406 -110 384.5 -90 Q363 -70 342 -50 Q313 -21 286 9 Q259 39 233 69.5 Q207 100 180.5 129.5 Q154 159 126 186 Q95 217 62 239 Z M394 652 Q351 609 311 564 Q271 519 233 471 Q201 431 170 391 Q139 351 110 309 Q188 390 263 474.5 Q338 559 394 652 Z M16 229 Q9 210 3 192 Q-3 174 -8 155 Q4 175 15.5 195 Q27 215 39 235 Q34 233 28 231 Q22 229 16 229 Z M24 244 L25 244 Q26 244 26.5 244.5 Q27 245 28 245 L27 246 Q26 245 25.5 245 Q25 245 24 244 Z " />
<glyph glyph-name="L" unicode="L" horiz-adv-x="287" d="M260 686 Q267 686 267 678 Q267 663 263.5 643.5 Q260 624 254.5 604 Q249 584 243 564.5 Q237 545 232 530 Q210 463 188 398.5 Q166 334 141.5 272.5 Q117 211 88.5 153 Q60 95 26 42 Q50 34 74 29.5 Q98 25 122 21 Q176 16 224 18.5 Q272 21 320 32 Q368 41 410 50 Q452 59 494 64 Q502 65 512 65 Q522 65 525 61 Q529 56 527 54.5 Q525 53 522 53 Q515 56 498 54 Q481 52 471 50 Q433 42 395.5 34 Q358 26 320 18 Q261 7 205.5 5 Q150 3 94 15 Q76 19 57.5 23.5 Q39 28 20 33 Q1 6 -23 -14 Q-47 -32 -70 -26 Q-89 -21 -105 -6.5 Q-121 8 -123 27 Q-126 56 -97 61 Q-70 66 -43 59 Q-16 52 7 46 Q41 100 72 163.5 Q103 227 130 292.5 Q157 358 180 422.5 Q203 487 220 543 Q231 578 241 612.5 Q251 647 254 682 Q256 688 260 686 Z M1 37 Q-10 41 -23.5 44.5 Q-37 48 -50.5 50 Q-64 52 -76.5 52 Q-89 52 -99 48 Q-106 45 -109 38.5 Q-112 32 -111 26 Q-109 14 -102.5 5.5 Q-96 -3 -87 -10 Q-66 -24 -42 -10 Q-28 -1 -18 11 Q-8 23 1 37 Z " />
<glyph glyph-name="M" unicode="M" horiz-adv-x="470" d="M368 -57 Q372 -52 377 -54 Q384 -56 379 -61 Q375 -67 367 -64 Q362 -61 358.5 -50 Q355 -39 353.5 -25 Q352 -11 352 3 Q352 17 353 26 Q360 134 389 234 Q418 334 453 431 Q463 460 473 488 Q483 516 493 544 Q495 550 500 569 Q505 588 508.5 609 Q512 630 510.5 646 Q509 662 499 662 Q479 662 455.5 647 Q432 632 410.5 611.5 Q389 591 370.5 569 Q352 547 341 534 Q309 496 280 457 Q251 418 222 379 Q204 353 185 328 Q166 303 149 288 Q145 285 141 282 Q137 279 133 281 Q131 282 128 282 Q121 285 121 293 Q121 310 127 337.5 Q133 365 141 386 Q154 427 168.5 467 Q183 507 197 548 Q206 571 212.5 591.5 Q219 612 221 633 Q215 630 210 625.5 Q205 621 200 616 Q173 586 152 555 Q135 531 119 506 Q103 481 89 455 Q82 441 75 424.5 Q68 408 66 396 Q75 405 82.5 415.5 Q90 426 97 437 Q101 442 104.5 440.5 Q108 439 106 434 Q97 421 89.5 408.5 Q82 396 72 386 Q66 379 58 384 Q52 387 52 394 Q53 407 61 427 Q69 447 79.5 467 Q90 487 101.5 506 Q113 525 121 537 Q135 557 149 576.5 Q163 596 180 615 Q191 627 203 638 Q215 649 226 643 Q230 641 232 636 Q234 631 234 624 Q234 617 232.5 610.5 Q231 604 230 600 Q219 560 203 518 Q188 477 174 437 Q160 397 147 356 Q142 339 139 323.5 Q136 308 134 292 Q140 296 151 309.5 Q162 323 175 339.5 Q188 356 201 373.5 Q214 391 224 405 Q250 439 275.5 473 Q301 507 328 539 Q342 555 360.5 576 Q379 597 399 616.5 Q419 636 441 651 Q463 666 484 671 Q497 673 507 667.5 Q517 662 521 648 Q526 625 522.5 603.5 Q519 582 514 563 Q506 537 497.5 511 Q489 485 480 459 Q464 414 448.5 370.5 Q433 327 419 282 Q394 201 378.5 129.5 Q363 58 363 -14 Q364 -26 365 -36.5 Q366 -47 368 -57 Z " />
<glyph glyph-name="N" unicode="N" horiz-adv-x="403" d="M465 582 Q423 479 383 380 Q343 281 308 178 Q294 134 279 81 Q264 28 251.5 -21.5 Q239 -71 232 -110 Q225 -149 227 -165 Q232 -164 236 -161.5 Q240 -159 244 -157 Q248 -155 252 -159 Q256 -163 251 -165 Q246 -167 242 -169.5 Q238 -172 233 -174 Q229 -176 224 -173 Q219 -170 217 -165 Q212 -154 216.5 -118 Q221 -82 230.5 -36.5 Q240 9 252.5 55.5 Q265 102 276 135 Q292 195 315.5 258 Q339 321 364.5 383.5 Q390 446 416 506.5 Q442 567 463 623 Q468 641 471.5 659 Q475 677 470 689 Q467 694 462 694 Q448 695 434 689.5 Q420 684 407 675.5 Q394 667 383 657 Q372 647 363 638 Q291 566 236 484.5 Q181 403 136 317 Q114 275 94.5 234 Q75 193 51 155 Q49 152 46 147 Q43 142 38.5 137.5 Q34 133 30 130.5 Q26 128 23 130 Q10 135 7 150 Q6 157 6.5 168.5 Q7 180 8 193 Q9 206 10.5 219.5 Q12 233 15 245 Q27 299 45.5 351 Q64 403 88 454 Q100 480 113 505 Q126 530 142 554 Q148 564 154.5 573 Q161 582 168 592 Q173 598 177 602.5 Q181 607 187 605 Q192 603 191.5 597 Q191 591 187 587 Q181 576 174.5 565.5 Q168 555 164 543 Q158 545 157 546 Q156 547 157 553 Q156 551 155.5 550.5 Q155 550 154 548 Q134 515 116.5 480.5 Q99 446 84 411 Q51 334 30 250 Q24 225 21 194 Q18 163 22 140 Q28 145 32.5 151 Q37 157 40 163 Q79 236 109 295 Q139 354 171 408 Q206 466 245.5 520 Q285 574 331 624 Q343 636 358 651.5 Q373 667 390.5 680 Q408 693 426.5 699.5 Q445 706 464 702 Q482 697 485 682 Q487 674 485.5 661.5 Q484 649 481 635 Q478 621 473.5 607 Q469 593 465 582 Z " />
<glyph glyph-name="O" unicode="O" horiz-adv-x="487" d="M89 150 Q37 172 25 229 Q15 288 27 344 Q39 400 61 451 Q80 492 107.5 536 Q135 580 169 618 Q203 656 243 683.5 Q283 711 328 719 Q392 729 434 679 Q456 647 467 612 Q478 577 481.5 540.5 Q485 504 482.5 467.5 Q480 431 474 396 Q459 305 429 221 Q399 137 355 56 Q337 25 314.5 -7.5 Q292 -40 265.5 -67.5 Q239 -95 208 -114.5 Q177 -134 140 -138 Q90 -146 61 -108 Q45 -84 43 -51.5 Q41 -19 48 16.5 Q55 52 66.5 87 Q78 122 89 150 Z M93 159 Q100 173 105.5 186.5 Q111 200 118 214 Q127 231 137 251 Q147 271 159 289 Q171 307 185 321 Q199 335 216 341 Q233 344 243.5 338 Q254 332 259 312 Q260 306 260.5 297.5 Q261 289 261 280.5 Q261 272 259.5 264.5 Q258 257 255 254 Q246 255 248 265 Q249 276 250 286 Q251 296 249 307 Q247 321 240.5 329 Q234 337 220 330 Q200 321 182.5 299 Q165 277 150.5 251 Q136 225 125 198.5 Q114 172 107 154 Q160 149 203 178.5 Q246 208 277.5 254 Q309 300 330 353 Q351 406 361 447 Q365 466 366 484.5 Q367 503 365 522 Q363 531 360 540 Q357 549 351.5 556 Q346 563 339 566.5 Q332 570 322 567 Q305 562 286.5 547.5 Q268 533 253 514 Q238 495 229 474 Q220 453 223 436 Q223 434 223.5 433 Q224 432 224 430 Q234 433 240 429 Q244 425 239 424 Q234 423 232 423 Q212 421 212 440 Q210 457 216.5 477.5 Q223 498 235.5 517 Q248 536 265 551.5 Q282 567 303 574 Q327 582 346 570.5 Q365 559 373 538 Q384 510 381 480.5 Q378 451 372 425 Q361 387 342.5 343 Q324 299 299 259.5 Q274 220 243 189.5 Q212 159 176 149 Q156 142 138.5 142.5 Q121 143 102 145 Q90 120 79 87 Q68 54 62 20 Q56 -14 57 -46.5 Q58 -79 71 -103 Q82 -120 98.5 -124.5 Q115 -129 133 -127 Q169 -119 199.5 -99.5 Q230 -80 255 -54 Q280 -28 300.5 2 Q321 32 338 62 Q380 137 409 214.5 Q438 292 455 376 Q461 413 465.5 453 Q470 493 468 533 Q466 573 456 610 Q446 647 423 678 Q403 700 381 706.5 Q359 713 333 708 Q293 700 256 675.5 Q219 651 187.5 618 Q156 585 130 546 Q104 507 86 471 Q59 413 43 353 Q27 293 38 234 Q43 208 56.5 187.5 Q70 167 93 159 Z " />
<glyph glyph-name="P" unicode="P" horiz-adv-x="501" d="M288 612 Q310 629 334.5 647.5 Q359 666 385 680.5 Q411 695 438 702 Q465 709 491 704 Q524 697 538 664 Q549 637 548.5 607.5 Q548 578 542 551 Q536 521 525 490 Q514 459 500.5 429 Q487 399 472 371 Q457 343 443 319 Q451 316 451 309 Q449 299 442 298 Q437 295 432 295 Q427 294 424 289 Q401 254 376 223 Q361 205 342.5 185.5 Q324 166 303.5 151.5 Q283 137 260.5 130.5 Q238 124 216 132 Q193 140 181 158 Q169 176 165 199 Q152 163 140 126.5 Q128 90 114 55 Q106 33 95 7 Q84 -19 72 -43 Q60 -67 48.5 -84.5 Q37 -102 27 -108 Q13 -120 -4 -111 Q-19 -104 -26 -89 Q-38 -65 -39 -36.5 Q-40 -8 -38 17 Q-34 62 -24.5 104.5 Q-15 147 -1 189 Q56 358 172 497 Q215 548 263 590 Q265 592 267 597 Q272 613 275.5 629 Q279 645 284 662 Q284 663 284.5 664 Q285 665 284 667 Q284 676 287 684 Q289 688 291 695.5 Q293 703 298 701 Q306 701 305 691 L299 664 Q296 651 293 638.5 Q290 626 288 612 Z M196 296 Q228 310 266 307 Q304 305 338.5 303 Q373 301 408 302 Q413 302 416 306 Q464 380 496 456 Q509 485 518 515 Q527 545 532 577 Q537 602 535.5 631.5 Q534 661 517 680 Q506 691 497.5 693 Q489 695 479 697 Q451 697 424 686.5 Q397 676 372.5 661 Q348 646 326 628 Q304 610 285 594 Q281 590 281 588 Q261 514 240 441.5 Q219 369 196 296 Z M259 570 Q190 506 136.5 430.5 Q83 355 44 268 Q18 208 0 146.5 Q-18 85 -24 19 Q-26 -9 -25.5 -36.5 Q-25 -64 -14 -87 Q-12 -90 -10.5 -93 Q-9 -96 -7 -98 Q0 -106 8 -101 Q23 -94 40.5 -63.5 Q58 -33 74.5 5.5 Q91 44 104.5 82 Q118 120 126 143 Q148 206 168 269 Q188 332 208 396 Q221 440 234 482.5 Q247 525 259 570 Z M239 295 Q197 292 184 255 Q176 230 177 204 Q178 178 192 158 Q210 134 241 139 Q268 146 291.5 162.5 Q315 179 335.5 200 Q356 221 373 244.5 Q390 268 404 289 Q360 291 319 295.5 Q278 300 239 295 Z " />
<glyph glyph-name="Q" unicode="Q" horiz-adv-x="390" d="M187 -3 Q170 -26 144.5 -47.5 Q119 -69 91 -73 Q71 -76 55 -69 Q17 -54 2 -19 Q-13 16 -15 52 Q-18 107 -8.5 163.5 Q1 220 18.5 274.5 Q36 329 59 381 Q82 433 107 478 Q123 507 143 533.5 Q163 560 186 584 Q192 590 198.5 595.5 Q205 601 211 606 Q216 611 217 613 Q227 632 241 653 Q255 674 272 690.5 Q289 707 310 718 Q331 729 354 729 Q374 730 390 721 Q406 712 417 692 Q425 674 427 651 Q430 617 424.5 575.5 Q419 534 408.5 490 Q398 446 384 403 Q370 360 355 323 Q333 268 309 214.5 Q285 161 257 108 Q256 106 256 105.5 Q256 105 255 103 Q253 101 253 96 Q254 83 255 70.5 Q256 58 257 45 Q258 12 256 -24.5 Q254 -61 247 -95.5 Q240 -130 226 -161.5 Q212 -193 188 -217 Q173 -232 154 -239 Q147 -242 139 -237 Q133 -233 139 -230 Q148 -224 158 -219 Q160 -218 160 -218 Q189 -205 206 -166.5 Q223 -128 231 -82 Q239 -36 240.5 8 Q242 52 241 76 Q227 56 214.5 35.5 Q202 15 187 -3 Z M201 579 Q157 535 128 486 Q101 439 76 384.5 Q51 330 32.5 272 Q14 214 4.5 156 Q-5 98 -1 46 Q1 20 8 -4 Q15 -28 31 -45 Q54 -68 84 -62 Q113 -54 134 -36 Q155 -18 172 3 Q191 26 206.5 50.5 Q222 75 237 101 Q237 103 237.5 104.5 Q238 106 237 108 Q235 128 232 147 Q229 166 224 185 Q208 251 192 311.5 Q176 372 174 435 Q175 477 182 511 Q189 545 201 579 Z M240 625 Q247 628 251.5 629.5 Q256 631 264 633 Q281 636 294 629.5 Q307 623 314 607 Q320 590 320.5 572.5 Q321 555 319 538 Q316 513 310.5 489 Q305 465 297 442 Q292 426 285 411 Q278 396 270 382 Q264 384 263 385.5 Q262 387 264 392 Q265 394 265.5 396 Q266 398 267 400 Q299 472 307 549 Q309 565 308.5 583.5 Q308 602 298 614 Q286 631 269 623 Q258 621 248.5 615.5 Q239 610 230 604 Q226 600 224 597 Q220 586 215.5 575.5 Q211 565 207 554 Q199 531 194 508 Q189 485 188 461 Q186 431 188.5 401.5 Q191 372 198 343 Q213 283 227 231 Q241 179 249 127 Q269 162 286 199 Q303 236 319 274 Q342 328 362 384 Q382 440 396 497 Q404 529 409.5 560.5 Q415 592 417 625 Q417 638 415.5 653 Q414 668 410.5 681.5 Q407 695 399 705 Q391 715 378 718 Q355 723 334 715.5 Q313 708 295 694 Q277 680 263 661.5 Q249 643 240 625 Z " />
<glyph glyph-name="R" unicode="R" horiz-adv-x="396" d="M432 750 Q449 748 456 739.5 Q463 731 468 719 Q474 693 470.5 663.5 Q467 634 458.5 604 Q450 574 438 545.5 Q426 517 414 493 Q362 389 299 297.5 Q236 206 155 131 Q168 117 178 102.5 Q188 88 198 73 Q233 16 265.5 -34.5 Q298 -85 336 -130 Q351 -147 367 -163 Q383 -179 404 -188 Q412 -191 417 -184 Q420 -180 422 -173 Q423 -169 427 -169 Q437 -170 433.5 -179.5 Q430 -189 426 -193 Q421 -200 409 -198 Q393 -195 376 -182.5 Q359 -170 342.5 -153 Q326 -136 310.5 -117 Q295 -98 282 -81 Q266 -61 252 -39.5 Q238 -18 224 5 Q204 38 186 69.5 Q168 101 145 124 Q125 108 103.5 95 Q82 82 58 78 Q41 77 26 84 Q21 67 15 52.5 Q9 38 3 24 Q-1 16 -8 5.5 Q-15 -5 -24 -2 Q-32 1 -35.5 3.5 Q-39 6 -43 20 Q-45 36 -44.5 56 Q-44 76 -41.5 96.5 Q-39 117 -35 137 Q-31 157 -26 174 Q-10 234 11 290.5 Q32 347 58 403 Q92 475 125 531 Q158 587 194 638 Q196 642 197.5 642.5 Q199 643 202 642 Q208 640 206.5 636 Q205 632 203 628 Q188 603 172.5 579 Q157 555 143 530 Q95 445 58 357.5 Q21 270 -6 176 Q-9 164 -14 145 Q-19 126 -22.5 103.5 Q-26 81 -27.5 57.5 Q-29 34 -25 13 Q-11 26 -4 46.5 Q3 67 9 84 Q10 85 10 86 Q10 87 11 88 Q14 95 11 103 Q8 112 12 125 Q18 141 30 152 Q34 155 37 163 Q53 211 70.5 257 Q88 303 108 349 Q130 401 154.5 453.5 Q179 506 208 555.5 Q237 605 272 648 Q307 691 351 723 Q368 735 389.5 744 Q411 753 432 750 Z M143 142 Q218 208 274.5 289.5 Q331 371 377 457 Q392 483 407.5 515.5 Q423 548 435 582 Q447 616 453.5 649.5 Q460 683 457 710 Q455 720 450 729 Q445 738 435 740 Q421 742 407.5 737.5 Q394 733 382 726 Q341 700 308.5 665.5 Q276 631 249.5 592 Q223 553 201 511 Q179 469 159 429 Q129 365 103.5 300 Q78 235 55 168 Q64 170 72.5 171 Q81 172 90 170 Q122 163 143 142 Z M134 135 Q129 140 124.5 144 Q120 148 115 151 Q83 169 52 150 Q49 149 47 144 Q43 133 39.5 122.5 Q36 112 32 101 Q30 97 30 93 Q34 89 41 89 Q54 88 66.5 92.5 Q79 97 91 104 Q103 111 114 119.5 Q125 128 134 135 Z " />
<glyph glyph-name="S" unicode="S" horiz-adv-x="341" d="M442 551 L442 552 Q455 561 464.5 572.5 Q474 584 484 595 Q498 614 508 629.5 Q518 645 520 662 Q522 686 503 696 Q486 704 466.5 704.5 Q447 705 430 703 Q380 696 335 677.5 Q290 659 250 631.5 Q210 604 175.5 569.5 Q141 535 112 497 Q101 480 89 459 Q77 438 70.5 416.5 Q64 395 66.5 375 Q69 355 87 340 Q106 326 126 318 Q146 310 165 302 Q194 288 217.5 268.5 Q241 249 247 220 Q251 199 248 174 Q233 102 196 40.5 Q159 -21 114 -69 Q88 -95 60 -116 Q32 -137 -3 -144 Q-33 -150 -59 -131 Q-81 -111 -82.5 -83 Q-84 -55 -76 -31 Q-61 11 -38.5 46.5 Q-16 82 13 112 Q42 142 76 166.5 Q110 191 147 209 Q163 217 182.5 222 Q202 227 214 225 Q223 223 230 218 Q229 231 220 244 Q211 257 196.5 268.5 Q182 280 163.5 290 Q145 300 125 308 Q110 315 94 323 Q78 331 67 343 Q51 364 50 387.5 Q49 411 56.5 434.5 Q64 458 77.5 479 Q91 500 104 517 Q164 590 236.5 641 Q309 692 394 709 Q428 715 461 715 Q494 715 517 696 Q538 681 533 652 Q527 630 515 612.5 Q503 595 489 580 Q481 570 470.5 560.5 Q460 551 455 547 Q447 541 442 551 Z M-55 -119 Q-39 -136 -16 -131 Q17 -123 44.5 -103.5 Q72 -84 94 -60 Q116 -36 139 -6 Q162 24 181.5 57 Q201 90 214.5 124 Q228 158 230 190 Q232 194 229 195 Q225 196 224.5 198.5 Q224 201 223 203 Q222 208 220.5 212.5 Q219 217 214 217 Q198 216 185.5 211.5 Q173 207 162 202 Q92 164 34.5 110.5 Q-23 57 -52 -16 Q-61 -41 -65 -69 Q-69 -97 -55 -119 Z " />
<glyph glyph-name="T" unicode="T" horiz-adv-x="380" d="M366 623 Q364 625 365 628 Q375 645 386 657 Q389 661 396 658 Q401 656 400 650.5 Q399 645 397 641 Q389 625 380 609 Q371 593 362 578 Q398 586 433 595.5 Q468 605 503 613 Q532 621 561 627 Q590 633 620 639 Q637 642 656 644.5 Q675 647 691.5 648 Q708 649 720.5 647.5 Q733 646 738 640 Q743 632 738.5 625.5 Q734 619 729 614 Q722 607 717 612 Q713 615 718 620 Q721 625 723.5 628.5 Q726 632 728 637 Q662 635 601.5 621 Q541 607 482 592 Q450 584 419 576 Q388 568 356 560 Q351 558 349 555 Q332 526 316 496 Q300 466 285 436 Q282 430 282 423 Q284 400 282.5 377 Q281 354 278 331 Q274 307 268.5 283 Q263 259 256 236 Q243 193 227 152 Q211 111 192 70 Q177 37 158 1.5 Q139 -34 126 -53 Q124 -55 119.5 -57.5 Q115 -60 111 -58 Q98 -53 96 -35 Q96 -19 99 2 Q102 23 108 46 Q114 69 121 91.5 Q128 114 135 133 Q164 211 196 287 Q228 363 266 438 Q268 444 268 446 Q266 480 254 498 Q242 516 234 527 Q231 530 227 529 Q210 526 194 522.5 Q178 519 161 516 Q138 512 116 510 Q94 508 71 509 Q37 510 15 525 Q7 533 13 542 Q22 552 36.5 560 Q51 568 67.5 573 Q84 578 101 580 Q118 582 132 581 Q158 579 181.5 571.5 Q205 564 225 547 Q227 545 231 545 Q257 552 283.5 558 Q310 564 336 571 Q339 571 341 574 Q348 586 354.5 597.5 Q361 609 368 620 Q371 623 366 623 Z M113 -41 Q122 -28 134 -7.5 Q146 13 158 36.5 Q170 60 181.5 85 Q193 110 202 131 Q222 179 238 226.5 Q254 274 263 325 Q266 345 268 364 Q270 383 270 403 Q238 341 212 277.5 Q186 214 161 149 Q151 122 142.5 94.5 Q134 67 127.5 41.5 Q121 16 117 -5.5 Q113 -27 113 -41 Z M217 542 L217 543 Q185 567 147 570 Q115 571 80.5 563.5 Q46 556 28 537 Q20 529 31 526 Q51 519 73 520.5 Q95 522 115 524 Q149 529 172.5 533 Q196 537 217 542 Z M277 460 Q291 484 303 507 Q315 530 329 553 Q306 548 284.5 542.5 Q263 537 241 532 Q268 502 277 460 Z " />
<glyph glyph-name="U" unicode="U" horiz-adv-x="347" d="M318 373 Q314 366 311 359 Q291 306 272.5 254 Q254 202 237 148 Q216 79 202.5 20 Q189 -39 181 -97 Q179 -114 179 -132.5 Q179 -151 181 -165 Q190 -162 191 -169 Q192 -175 188 -176 Q184 -177 180 -175 Q170 -172 167 -154 Q164 -136 166 -116 Q171 -43 187 25.5 Q203 94 223 160 Q232 189 243 220.5 Q254 252 262 281 Q246 257 231 233.5 Q216 210 199 186 Q178 155 155.5 125 Q133 95 108 66 Q98 54 85.5 41.5 Q73 29 60.5 18 Q48 7 35.5 -2.5 Q23 -12 12 -16 Q-4 -24 -18.5 -16 Q-33 -8 -37 6 Q-42 28 -40 56.5 Q-38 85 -31.5 115 Q-25 145 -16 173.5 Q-7 202 1 224 Q41 342 103 452 Q120 481 138 509.5 Q156 538 177 561 Q182 566 187 562 Q192 557 189.5 553.5 Q187 550 185 546 Q177 532 171 522.5 Q165 513 158 499 Q154 491 156 486 Q156 485 154 483 Q146 485 145 492 Q143 490 142.5 489 Q142 488 141 487 Q108 433 81 376 Q24 257 -12 130 Q-17 113 -20 93.5 Q-23 74 -24.5 55.5 Q-26 37 -24.5 21.5 Q-23 6 -18 -4 Q-17 -8 -9 -8 Q26 6 53.5 33 Q81 60 104 87 Q164 159 215 237 Q234 266 252 295.5 Q270 325 289 354 Q293 359 294 365 Q306 396 325 448 Q344 500 366.5 554 Q389 608 412 654.5 Q435 701 456 722 Q461 727 469.5 727 Q478 727 479 719 Q480 702 472 675 Q464 648 449.5 616.5 Q435 585 417 550 Q399 515 380.5 482.5 Q362 450 345.5 421.5 Q329 393 318 373 Z M352 465 Q365 487 383.5 519.5 Q402 552 420 587 Q438 622 451 655 Q464 688 466 711 Q426 653 401 589.5 Q376 526 352 465 Z " />
<glyph glyph-name="V" unicode="V" horiz-adv-x="386" d="M488 792 Q500 791 504 784.5 Q508 778 510 767 Q511 755 508.5 738.5 Q506 722 501 704.5 Q496 687 489 669.5 Q482 652 476 638 Q441 559 403 478.5 Q365 398 323.5 320 Q282 242 237.5 168 Q193 94 145 28 Q126 1 102 -24 Q99 -27 99 -30 Q96 -50 93 -81 Q90 -112 88.5 -143.5 Q87 -175 88.5 -203.5 Q90 -232 95 -247 Q99 -245 101 -243 Q107 -236 115 -227.5 Q123 -219 128 -224 Q131 -228 123.5 -237 Q116 -246 110 -252 Q105 -257 99 -257 Q94 -256 91 -255 Q88 -254 84 -249 Q78 -239 75 -213 Q72 -187 72 -156 Q72 -125 74.5 -94 Q77 -63 81 -42 Q72 -48 61 -53 Q50 -58 39 -55 Q20 -50 12 -36 Q-3 -15 -7 19.5 Q-11 54 -8.5 92.5 Q-6 131 0 168.5 Q6 206 11 233 Q28 315 55 388 Q82 461 115 533 Q117 538 121 546 Q125 554 132 552 Q137 550 136.5 545 Q136 540 135 536 Q135 532 131.5 531.5 Q128 531 126 527 Q97 466 75 404 Q53 342 37 277 Q20 204 9.5 132.5 Q-1 61 13 -9 Q14 -13 16.5 -19.5 Q19 -26 22.5 -31.5 Q26 -37 30.5 -41 Q35 -45 41 -45 Q47 -45 53 -42 Q61 -38 68 -33 Q75 -28 82 -22 Q84 -20 84 -17 Q93 37 106 89 Q119 141 135 194 Q158 269 185.5 341 Q213 413 247 483 Q287 570 340 652 Q350 668 368 692.5 Q386 717 406.5 739.5 Q427 762 448.5 777.5 Q470 793 488 792 Z M105 4 Q162 78 210.5 154.5 Q259 231 302 309 Q345 387 383.5 467.5 Q422 548 459 630 Q466 646 473 664.5 Q480 683 486 701 Q492 719 495 736 Q498 753 498 766 Q497 768 496 776 Q495 784 490 782 Q467 777 443 755.5 Q419 734 397.5 705.5 Q376 677 358 648.5 Q340 620 330 602 Q303 557 280 510.5 Q257 464 237 416 Q191 304 156 201.5 Q121 99 105 4 Z " />
<glyph glyph-name="W" unicode="W" horiz-adv-x="531" d="M289 39 Q264 77 252.5 123 Q241 169 238 213 Q233 273 245 329 Q257 385 277 438 Q315 535 377 615 Q408 656 445 684 Q464 698 485 708 Q506 718 528 718 Q578 718 592 670 Q600 640 595.5 609 Q591 578 583 549 Q554 443 504.5 345 Q455 247 400 156 Q376 117 351 86 Q326 55 306 32 Q314 23 323 20 Q331 17 339 24 Q345 29 352 22 Q350 17 347 15.5 Q344 14 341 12 Q332 9 324 12 Q311 16 300 26 Q274 2 248.5 -19.5 Q223 -41 192 -46 Q176 -50 160 -41.5 Q144 -33 137 -20 Q126 2 124 25.5 Q122 49 124 72 Q126 103 131.5 133 Q137 163 144 192 Q148 207 151.5 221.5 Q155 236 158 251 Q84 113 -6 -14 Q-16 -28 -26 -41.5 Q-36 -55 -47 -69 Q-51 -74 -55 -78 Q-59 -82 -64 -87 Q-75 -96 -82 -92 Q-95 -87 -95 -70 Q-96 -59 -94 -47.5 Q-92 -36 -90 -25 Q-85 4 -77 31.5 Q-69 59 -60 86 Q-40 150 -17.5 213 Q5 276 31 339 Q50 384 70.5 426.5 Q91 469 115 511 Q132 540 150.5 568.5 Q169 597 189 619 Q193 625 200 622 Q207 619 203 611 Q194 595 186.5 581.5 Q179 568 171 554 Q166 544 161.5 535.5 Q157 527 152 517 Q150 514 148 509.5 Q146 505 147 501 Q137 502 138 510 Q138 515 142 523 Q146 531 151 540 Q156 549 161.5 558.5 Q167 568 171 577 Q149 545 130 512 Q111 479 94 444 Q71 396 50.5 347.5 Q30 299 11 248 Q-28 141 -61 32 Q-67 11 -72 -9.5 Q-77 -30 -80 -52 Q-81 -65 -80 -81 Q-57 -61 -43 -40 Q-11 2 18 45 Q47 88 75 133 Q98 171 120.5 209.5 Q143 248 163 289 Q168 300 173 311.5 Q178 323 183 334 Q185 339 185.5 339.5 Q186 340 191 339 Q197 336 196 331 Q196 329 195.5 328 Q195 327 195 325 Q169 245 153 163 Q149 143 146 124.5 Q143 106 141 87 Q138 60 139 34.5 Q140 9 147 -11 Q155 -32 170 -33.5 Q185 -35 201 -29 Q225 -18 249 0.5 Q273 19 289 39 Z M296 46 Q316 69 338.5 98.5 Q361 128 382 160 Q413 210 445 266 Q477 322 504.5 380.5 Q532 439 552.5 498.5 Q573 558 582 615 Q584 635 582.5 656 Q581 677 570 692 Q560 706 543 708 Q521 710 501.5 701.5 Q482 693 465 682 Q445 667 427.5 650 Q410 633 394 613 Q367 578 345 541 Q323 504 306 464 Q277 396 261.5 331.5 Q246 267 252 201 Q257 160 266 120.5 Q275 81 296 46 Z " />
<glyph glyph-name="X" unicode="X" horiz-adv-x="520" d="M402 -79 Q404 -75 404 -72 Q407 -65 413 -69 Q417 -71 416 -75 Q414 -79 413.5 -83 Q413 -87 411 -91 Q407 -99 399.5 -93.5 Q392 -88 391 -83 Q367 -2 355.5 77.5 Q344 157 339 237 Q316 208 294.5 178.5 Q273 149 250 120 Q229 94 204.5 66.5 Q180 39 152 14.5 Q124 -10 94.5 -27.5 Q65 -45 34 -49 Q6 -53 -18 -36 Q-35 -23 -41 -0.5 Q-47 22 -47 47.5 Q-47 73 -42 98 Q-37 123 -32 141 Q3 254 63.5 353.5 Q124 453 199 539 Q215 556 233 574.5 Q251 593 272 602 Q301 614 318 590 Q330 561 336 524 Q342 487 345 446.5 Q348 406 349 364.5 Q350 323 353 287 Q415 375 478 457.5 Q541 540 609 619 Q612 622 613 624 Q612 625 611 625 Q608 628 610 631 Q614 637 616 639 Q630 655 644.5 668.5 Q659 682 674 696 Q680 701 683 701.5 Q686 702 688 700 Q693 696 690 692 Q687 688 685 685 Q594 578 514.5 473.5 Q435 369 357 263 Q354 258 354 253 Q357 172 368 84.5 Q379 -3 402 -79 Z M337 269 Q334 345 331.5 399.5 Q329 454 325.5 492 Q322 530 317 553.5 Q312 577 304 591 Q301 599 292 596 Q272 590 251.5 572 Q231 554 217 538 Q149 460 95.5 379 Q42 298 7 210 Q-4 181 -14.5 148.5 Q-25 116 -30.5 84.5 Q-36 53 -33.5 24.5 Q-31 -4 -16 -25 Q-6 -36 5.5 -38 Q17 -40 29 -37 Q60 -30 87.5 -13.5 Q115 3 140 25 Q165 47 186.5 71.5 Q208 96 227 119 Q255 154 281.5 189.5 Q308 225 334 261 Q337 265 337 269 Z " />
<glyph glyph-name="Y" unicode="Y" horiz-adv-x="474" d="M313 66 Q327 58 328.5 48.5 Q330 39 328 37 Q318 35 321 46 L321 50 Q320 55 316.5 56.5 Q313 58 309 58 Q296 30 282.5 3.5 Q269 -23 252 -48 Q229 -84 201.5 -115 Q174 -146 137 -162 Q123 -168 109 -170.5 Q95 -173 81 -171 Q55 -166 40.5 -150.5 Q26 -135 24 -110 Q26 -72 46.5 -40.5 Q67 -9 95 13 Q114 28 138.5 39 Q163 50 190 57 Q217 64 244.5 67 Q272 70 296 69 Q348 181 388 289.5 Q428 398 466 507 Q428 455 388.5 403.5 Q349 352 310 300 Q278 259 247 219 Q216 179 183 140 Q162 116 141 92.5 Q120 69 97 47 Q88 38 75 27 Q62 16 48.5 6.5 Q35 -3 22 -9 Q9 -15 0 -13 Q-17 -9 -25 2.5 Q-33 14 -35 29 Q-38 75 -24 134 Q-10 193 12.5 253 Q35 313 61 368.5 Q87 424 107 463 Q127 501 150 538 Q173 575 199 610 Q202 614 202.5 616.5 Q203 619 205 621 Q210 627 215 632.5 Q220 638 225 643 Q229 647 234 644 Q239 641 236 637 Q232 633 230 630 Q199 590 172 547 Q145 504 122 459 Q102 419 75 361 Q48 303 25 241 Q2 179 -11.5 120.5 Q-25 62 -19 20 Q-16 12 -12 4.5 Q-8 -3 0 -1 Q17 3 31.5 13 Q46 23 58 33 Q76 48 92.5 65 Q109 82 126 99 Q159 135 190.5 173 Q222 211 252 249 Q308 320 361.5 390 Q415 460 469 532 Q479 546 487 559.5 Q495 573 502 588 Q521 630 543 670.5 Q565 711 594 743 Q603 751 608 752 Q613 753 616 750 Q620 747 618.5 741 Q617 735 615 732 Q596 690 571.5 654 Q547 618 522 584 Q508 565 497 539 Q480 497 464.5 455.5 Q449 414 434 372 Q403 286 374.5 213.5 Q346 141 315 70 Q314 69 314 68 Q314 67 313 66 Z M291 60 Q282 59 272.5 59 Q263 59 254 58 Q208 53 164.5 37 Q121 21 88 -11 Q65 -35 49 -64.5 Q33 -94 39 -127 Q43 -141 51.5 -148.5 Q60 -156 70.5 -159 Q81 -162 92.5 -161 Q104 -160 115 -157 Q152 -144 179.5 -116.5 Q207 -89 227 -58 Q245 -30 261 -0.5 Q277 29 291 60 Z M551 652 Q562 667 572 682 Q582 697 590 714 Q579 699 569.5 683.5 Q560 668 551 652 Z " />
<glyph glyph-name="Z" unicode="Z" horiz-adv-x="560" d="M347 304 Q373 269 374.5 229.5 Q376 190 364 152 Q350 107 328 70.5 Q306 34 289 9 Q318 -4 345 -15 Q372 -26 400 -35 Q422 -42 447 -47 Q472 -52 497.5 -52 Q523 -52 549 -47 Q575 -42 599 -29 Q605 -24 613 -16.5 Q621 -9 626 -11 Q629 -14 626.5 -19 Q624 -24 619.5 -28.5 Q615 -33 610 -36.5 Q605 -40 603 -41 Q580 -53 554.5 -58 Q529 -63 503 -62.5 Q477 -62 451.5 -57.5 Q426 -53 403 -46 Q372 -36 342.5 -24 Q313 -12 283 1 Q260 -29 236 -56.5 Q212 -84 184 -109 Q142 -147 96.5 -178 Q51 -209 0 -220 Q-28 -226 -54.5 -221.5 Q-81 -217 -98 -196 Q-116 -169 -115 -137 Q-114 -105 -101 -74.5 Q-88 -44 -67 -18 Q-46 8 -25 24 Q23 57 75 60.5 Q127 64 176 50 Q202 43 225.5 34 Q249 25 273 15 Q302 60 327.5 105 Q353 150 358 200 Q361 227 357.5 253 Q354 279 338 299 Q316 288 296 274.5 Q276 261 253 251 Q228 239 200 233 Q189 231 178 232.5 Q167 234 157 240 Q145 248 150 262 Q154 274 162.5 284 Q171 294 180 300 Q196 312 215.5 321 Q235 330 255.5 333.5 Q276 337 296 333 Q316 329 333 316 L334 316 Q359 333 390.5 357 Q422 381 455 409 Q488 437 520.5 468.5 Q553 500 579.5 532.5 Q606 565 623.5 597.5 Q641 630 645 660 Q648 685 638.5 705.5 Q629 726 605 734 Q573 741 542 736.5 Q511 732 482 724 Q413 704 347.5 676.5 Q282 649 220 611 Q206 603 191 592.5 Q176 582 162.5 570.5 Q149 559 138 546 Q127 533 122 520 Q117 507 126 500 Q128 498 130 495.5 Q132 493 134 491 Q137 488 134 485 Q132 486 130.5 486.5 Q129 487 127 489 Q125 492 122 494.5 Q119 497 117 499 Q107 509 112 525 Q117 541 130 556 Q143 571 159.5 584 Q176 597 193.5 608.5 Q211 620 225 628 Q300 670 369.5 697.5 Q439 725 509 741 Q537 746 563 747 Q589 748 612 739 Q638 728 648 708.5 Q658 689 658 664 Q656 615 623 563.5 Q590 512 543 464 Q496 416 442.5 374.5 Q389 333 347 304 Z M266 8 Q249 15 231.5 21 Q214 27 197 34 Q145 51 91 51 Q37 51 -8 20 Q-29 3 -48 -18.5 Q-67 -40 -80.5 -65 Q-94 -90 -99.5 -117 Q-105 -144 -98 -170 Q-90 -199 -68 -208 Q-46 -217 -21 -212 Q26 -201 64 -178 Q102 -155 137 -128 Q156 -112 174.5 -94.5 Q193 -77 210 -59 Q227 -41 241 -24 Q255 -7 266 8 Z M326 310 Q310 322 291 324 Q272 326 253.5 321 Q235 316 217 306.5 Q199 297 186 287 Q166 270 162 254 Q160 243 172 243 Q187 241 203 246 Q219 251 232 257 Q258 268 282 282.5 Q306 297 326 310 Z " />
<glyph glyph-name="bracketleft" unicode="&#x5b;" horiz-adv-x="275" d="M312 692 Q314 690 314.5 688.5 Q315 687 313 682 Q311 684 309.5 685 Q308 686 306 687 Q302 689 302 689 Q296 691 293 691 Q285 692 280 686 Q278 683 276.5 680 Q275 677 274 674 L154 356 Q127 282 101.5 208.5 Q76 135 50 61 Q18 -32 -7 -123 Q-8 -127 -10 -135 Q-12 -143 -13.5 -152.5 Q-15 -162 -16.5 -171 Q-18 -180 -18 -185 Q-2 -179 13 -172 Q28 -165 43 -158 Q47 -156 52 -154.5 Q57 -153 68 -153 Q72 -154 72 -160 Q67 -159 62 -161 Q57 -163 52 -165 Q39 -171 26.5 -178 Q14 -185 0 -190 Q-9 -194 -15 -195 Q-21 -196 -27 -192 Q-32 -189 -30.5 -174 Q-29 -159 -28 -153 Q-24 -131 -18 -110 Q-12 -89 -6 -69 Q11 -10 30.5 47 Q50 104 70 162 Q98 242 126.5 321 Q155 400 186 480 Q204 527 221.5 573 Q239 619 257 666 Q259 671 260.5 675 Q262 679 264 683 Q272 703 294 698 Q299 697 303 696 Q307 695 312 692 Z " />
<glyph glyph-name="backslash" unicode="&#x5c;" horiz-adv-x="281" d="M233 754 Q237 754 237.5 748.5 Q238 743 237 741 Q235 730 233.5 720 Q232 710 230 699 Q221 654 211.5 610.5 Q202 567 192 523 Q163 393 140 265 Q117 137 97 6 Q88 -54 81 -114 Q74 -174 67 -233 Q67 -239 71 -242 Q75 -245 71 -251 Q66 -259 61 -252.5 Q56 -246 56 -239 Q57 -204 61.5 -165 Q66 -126 71 -86 Q88 65 114 213 Q140 361 173 510 Q184 557 194.5 603 Q205 649 216 696 Q219 710 222 722.5 Q225 735 228 749 Q228 751 229 753 Q230 755 233 754 Z " />
<glyph glyph-name="bracketright" unicode="&#x5d;" horiz-adv-x="328" d="M286 689 Q302 687 300 671 Q298 651 287.5 616.5 Q277 582 267 552 Q253 510 238.5 468 Q224 426 209 384 Q191 330 173 277.5 Q155 225 137 172 Q105 81 71 -9 Q37 -99 8 -194 Q7 -196 4.5 -202 Q2 -208 -1 -207 Q-8 -205 -9.5 -203 Q-11 -201 -9 -194 Q-8 -192 -8 -190 Q-8 -188 -7 -186 Q-24 -178 -43.5 -184.5 Q-63 -191 -80 -199 Q-82 -200 -86 -198 Q-90 -196 -89 -194 Q-85 -187 -73.5 -182 Q-62 -177 -48.5 -175 Q-35 -173 -23 -174 Q-11 -175 -5 -179 Q36 -64 76 50 Q116 164 157 278 L223 464 Q240 515 258 564.5 Q276 614 288 667 Q289 670 289 676 Q289 682 283 682 Q272 682 259.5 678.5 Q247 675 233 670 Q230 670 227.5 668.5 Q225 667 222 669 Q217 672 222 675 Q234 682 254.5 686 Q275 690 286 689 Z " />
<glyph glyph-name="asciicircum" unicode="&#x5e;" horiz-adv-x="281" d="M269 677 Q280 675 280 666 Q280 657 278 649 Q276 633 273 618 Q270 603 267 587 Q267 585 266 576.5 Q265 568 261 568 Q254 570 254 572 Q254 574 255 583 Q257 594 258 604.5 Q259 615 261 626 Q263 635 264 644 Q265 653 265 662 Q223 614 187 560 Q186 558 184.5 553 Q183 548 181 548 Q177 546 173.5 549.5 Q170 553 172 557 Q175 568 184 582 Q193 596 205 611 Q217 626 230 641.5 Q243 657 255 671 Q262 678 269 677 Z " />
<glyph glyph-name="underscore" unicode="&#x5f;" horiz-adv-x="226" d="M138 236 Q140 241 140 241 Q113 239 86 235.5 Q59 232 33 232 Q11 230 2 236 Q1 237 1 241 Q2 243 5.5 243 Q9 243 10 242 Q30 240 63.5 244.5 Q97 249 127 249 Q131 249 139.5 248 Q148 247 151 244 Q156 239 152 235 Q146 228 138 236 Z " />
<glyph glyph-name="grave" unicode="&#x60;" horiz-adv-x="190" d="M169 593 Q170 591 169.5 588 Q169 585 165 585 Q160 585 160.5 588 Q161 591 159 594 Q157 600 153.5 610 Q150 620 146.5 630.5 Q143 641 139.5 650.5 Q136 660 133 666 Q132 668 132 670 Q132 672 131 674 Q131 680 136 678 Q140 677 142 671 L169 593 Z " />
<glyph glyph-name="a" unicode="a" horiz-adv-x="126" d="M91 345 Q72 323 55.5 300 Q39 277 18 260 Q10 255 5.5 256 Q1 257 -4 260 Q-11 266 -10 274.5 Q-9 283 -6 290 Q-2 299 5.5 308.5 Q13 318 18 322 Q28 330 37 331.5 Q46 333 57 326 Q65 334 73.5 345 Q82 356 93 358 Q103 357 103 346 Q102 335 94.5 319.5 Q87 304 81 292 Q78 286 75 278.5 Q72 271 69.5 262.5 Q67 254 66 247 Q65 240 66 236 Q66 231 71 234 Q77 237 84.5 244.5 Q92 252 99.5 261.5 Q107 271 114 281.5 Q121 292 126 300 Q134 299 134 296 Q134 293 132 290 Q119 271 107 253 Q95 235 85 228 Q77 221 66 226 Q53 232 52 242 Q51 253 55 266.5 Q59 280 64 290 Q71 305 78.5 318 Q86 331 91 345 Z M4 267 Q10 270 16 275.5 Q22 281 26 286 Q33 294 38 301 Q43 308 50 316 Q50 317 50.5 318 Q51 319 51 320 Q50 322 46 322 Q39 322 31 316 Q23 308 12.5 294 Q2 280 4 267 Z " />
<glyph glyph-name="b" unicode="b" horiz-adv-x="160" d="M107 569 Q109 573 110.5 573.5 Q112 574 114 574 Q118 573 118 568 Q94 499 64 432 Q34 365 12 294 Q-1 258 -10.5 222.5 Q-20 187 -25 153 Q-20 161 -15.5 169 Q-11 177 -6 186 Q10 220 26 252 Q42 284 68 305 Q73 310 81 308 Q89 306 91 298 Q93 289 92.5 276.5 Q92 264 88 253 Q102 259 115.5 265.5 Q129 272 140 282 Q142 284 145.5 287 Q149 290 152 293 Q156 297 160 300 Q168 299 167 295.5 Q166 292 165 291 Q161 287 157 283.5 Q153 280 149 275 Q125 251 91 243 Q83 242 80 233 Q75 219 65.5 203 Q56 187 44 180 Q36 175 30.5 175.5 Q25 176 18 181 Q15 183 14 187.5 Q13 192 13 197 Q5 183 -2.5 165.5 Q-10 148 -18 140 Q-22 138 -27 139 Q-38 143 -38 156 Q-36 177 -32 196 Q-26 225 -17 253 Q-8 281 2 309 Q25 375 52.5 439.5 Q80 504 107 569 Z M24 220 Q36 233 47 239.5 Q58 246 69 248 Q73 250 73 252 Q78 262 80 275 Q82 288 80 299 Q63 288 47.5 263.5 Q32 239 24 220 Z M66 236 Q58 233 50 228 Q42 223 36 216 Q30 209 26.5 200.5 Q23 192 26 184 Q38 191 50 206.5 Q62 222 66 236 Z " />
<glyph glyph-name="c" unicode="c" horiz-adv-x="117" d="M45 306 Q54 314 56.5 323 Q59 332 55 339 Q45 337 31.5 322 Q18 307 6.5 287 Q-5 267 -11.5 246.5 Q-18 226 -14 212 Q-10 201 2 203 Q18 208 30.5 216 Q43 224 54 235 Q70 250 85 265.5 Q100 281 114 297 L117 300 Q128 298 121 291 Q107 274 93 258 Q79 242 63 227 Q52 215 36 204 Q20 193 4 193 Q-11 193 -20.5 202 Q-30 211 -28 230 Q-26 247 -19.5 262.5 Q-13 278 -5 293 Q-1 300 5.5 309.5 Q12 319 20 328 Q28 337 36.5 342.5 Q45 348 54 348 Q67 344 68 333 Q71 316 59 304 Q51 296 45 306 Z " />
<glyph glyph-name="d" unicode="d" horiz-adv-x="140" d="M196 563 Q181 541 168.5 517.5 Q156 494 144 471 Q124 429 105 389 Q86 349 66 308 Q52 282 39 257 Q26 232 6 218 Q-2 212 -11 217 Q-20 222 -21 231 Q-22 240 -19 254 Q-16 268 -9.5 282.5 Q-3 297 6 310.5 Q15 324 26 331 Q33 335 40 334 Q47 333 52 327 Q56 322 56 315 Q78 359 98.5 402.5 Q119 446 141 490 Q155 516 167.5 539 Q180 562 194 576 Q201 583 208 576 Q210 574 209 566 Q208 558 205.5 549 Q203 540 200 532.5 Q197 525 196 522 Q182 487 169.5 456.5 Q157 426 142 390 Q117 330 93.5 270.5 Q70 211 49 150 Q35 109 23.5 68.5 Q12 28 2 -14 Q-3 -34 -7 -55 Q-11 -76 -14 -96 Q-16 -109 -14.5 -117 Q-13 -125 -18 -126 Q-23 -128 -24.5 -124 Q-26 -120 -26 -115 Q-26 -104 -25 -94 Q-24 -84 -22 -73 Q-11 -6 7 58 Q25 122 48 186 Q71 249 95.5 310 Q120 371 146 433 Q159 465 173 497.5 Q187 530 196 563 Z M49 300 Q47 305 47.5 311 Q48 317 46 322 Q43 327 39 326 Q29 321 20 310.5 Q11 300 4.5 286.5 Q-2 273 -6 259 Q-10 245 -10 234 Q-10 227 -8 223 Q4 228 14 242 Q25 256 33 271 Q41 286 49 300 Z " />
<glyph glyph-name="e" unicode="e" horiz-adv-x="103" d="M16 295 Q10 282 5.5 270.5 Q1 259 1 245 Q1 226 14 230 Q41 241 61.5 261 Q82 281 103 300 Q113 298 105 289 Q91 272 73 255.5 Q55 239 44 231 Q36 226 25.5 220.5 Q15 215 3 220 Q-13 229 -14 245 Q-15 260 -10.5 275.5 Q-6 291 2 305 Q10 319 20.5 331.5 Q31 344 42 352 Q50 357 59.5 355.5 Q69 354 72 346 Q77 333 69.5 315 Q62 297 48 288 Q38 281 29.5 283.5 Q21 286 16 295 Z M60 346 Q55 343 49.5 340 Q44 337 40 333 Q33 325 28.5 315 Q24 305 29 294 Q43 300 54 315.5 Q65 331 60 346 Z " />
<glyph glyph-name="f" unicode="f" horiz-adv-x="148" d="M148 300 Q162 298 156 290 Q152 286 149 282.5 Q146 279 143 275 Q128 257 112 237.5 Q96 218 77.5 200 Q59 182 37.5 166.5 Q16 151 -8 141 Q9 109 10 68 Q11 27 0 -16 Q-8 -43 -18.5 -68.5 Q-29 -94 -46 -117 Q-52 -125 -62 -131 Q-72 -137 -83 -132 Q-103 -124 -106 -100 Q-111 -63 -101 -15.5 Q-91 32 -79 73 Q-72 96 -65.5 120 Q-59 144 -49 170 Q-17 267 25.5 359 Q68 451 110 545 Q112 550 115.5 555.5 Q119 561 124 559 Q129 557 128 552.5 Q127 548 125 544 Q83 450 42 357 Q1 264 -33 167 Q-26 160 -17 154 Q-16 152 -15 153 Q-14 154 -12 154 Q-4 157 3 161 Q10 165 17 170 Q50 193 79.5 224 Q109 255 140 290 Q141 291 142 292.5 Q143 294 145 296 Q147 298 148 300 Z M-36 158 Q-38 152 -39 148 Q-30 148 -27 150 Q-30 157 -36 158 Z M-14 -12 Q-9 4 -5.5 23.5 Q-2 43 -2 63.5 Q-2 84 -5.5 103.5 Q-9 123 -19 138 Q-25 138 -30.5 137.5 Q-36 137 -42 140 Q-49 119 -58 89 Q-67 59 -75 26.5 Q-83 -6 -88.5 -38 Q-94 -70 -92 -95 Q-92 -108 -86 -118 Q-82 -124 -76 -122 Q-64 -117 -59 -109 Q-43 -88 -32.5 -63.5 Q-22 -39 -14 -12 Z " />
<glyph glyph-name="g" unicode="g" horiz-adv-x="151" d="M50 315 Q58 326 65.5 335.5 Q73 345 82 354 Q91 361 101 353 Q106 349 104.5 333.5 Q103 318 101 311 Q98 296 94.5 279.5 Q91 263 86 250 Q98 258 111.5 267.5 Q125 277 141 291 L147 297 Q149 299 151 300 Q158 298 158 295.5 Q158 293 156 291 Q149 284 139.5 275.5 Q130 267 120.5 259 Q111 251 101 243.5 Q91 236 83 231 Q80 229 78 223 Q62 166 43 114.5 Q24 63 -2 15 Q-13 -5 -25.5 -21.5 Q-38 -38 -56 -48 Q-71 -55 -83.5 -53 Q-96 -51 -105 -42.5 Q-114 -34 -119 -22 Q-124 -10 -125 3 Q-130 68 -91 117 Q-59 157 -19 182 Q21 207 61 232 Q65 234 66 238 Q73 264 80 291 Q87 318 91 341 Q83 334 72.5 320.5 Q62 307 55 296 Q41 275 31.5 262 Q22 249 9 242 Q1 238 -4 239.5 Q-9 241 -16 245 Q-22 251 -19.5 262.5 Q-17 274 -10.5 286 Q-4 298 5 308 Q14 318 21 322 Q40 331 50 315 Z M59 214 Q22 193 -14.5 169 Q-51 145 -77 113 Q-120 61 -113 -3 Q-112 -11 -109 -19 Q-106 -27 -101.5 -33 Q-97 -39 -90.5 -42 Q-84 -45 -76 -43 Q-62 -39 -44 -18.5 Q-26 2 -17 22 Q7 70 25 118 Q43 166 59 214 Z M-7 252 Q0 254 7 259.5 Q14 265 18 270 Q23 278 28.5 284.5 Q34 291 40 299 Q44 304 41 312 Q38 317 31.5 314 Q25 311 22 308 Q1 287 -6 261 Q-7 258 -7 252 Z " />
<glyph glyph-name="h" unicode="h" horiz-adv-x="136" d="M136 300 Q148 300 141 290 Q132 276 121 263 Q110 250 98 236 Q92 228 84 231 Q79 233 74.5 236 Q70 239 69 246 Q67 256 68.5 266 Q70 276 70 289 Q70 293 70 296.5 Q70 300 68 305 Q61 301 52.5 288 Q44 275 35.5 259.5 Q27 244 20.5 229.5 Q14 215 11 208 Q6 194 0.5 181 Q-5 168 -11 154 Q-13 150 -16.5 140.5 Q-20 131 -26 131 Q-38 133 -40 144 Q-41 153 -39 166 Q-37 179 -33.5 193 Q-30 207 -26 220.5 Q-22 234 -18 246 Q3 314 27 383.5 Q51 453 79 524 Q82 529 86 528 Q92 527 91 521 Q70 461 50 400.5 Q30 340 10 280 Q0 251 -9 220.5 Q-18 190 -23 160 Q-15 181 -6 201 Q3 221 12 241 Q20 257 32 279 Q44 301 57 311 Q67 319 76 310 Q83 303 82.5 293.5 Q82 284 82 273 Q81 267 81 256 Q81 245 83 239 Q88 242 93 248 Q98 254 101 258 Q109 268 116 276 Q123 284 131 294 Q132 295 132.5 296 Q133 297 134 298 L136 300 L136 300 Z " />
<glyph glyph-name="i" unicode="i" horiz-adv-x="92" d="M-8 221 Q1 224 8.5 230 Q16 236 24 242 Q38 254 52.5 266.5 Q67 279 81 291 Q82 292 84 293.5 Q86 295 88 297 Q90 299 92 300 Q100 299 99.5 295.5 Q99 292 97 291 Q73 270 48.5 246.5 Q24 223 6 213 Q-2 208 -12 212 Q-22 216 -22 229 Q-21 254 -11.5 276.5 Q-2 299 11 321 Q18 333 24 328 Q28 325 23 317 Q14 300 7 283.5 Q0 267 -5 249 Q-8 237 -8 221 Z M78 455 Q67 452 56.5 449 Q46 446 35 443 Q32 441 30 442 Q28 443 25 445 Q19 448 26 450 Q38 453 50 456.5 Q62 460 75 463 Q82 465 89 461 Q94 457 87 456.5 Q80 456 78 455 Z " />
<glyph glyph-name="j" unicode="j" horiz-adv-x="121" d="M57 356 Q42 351 32 336 Q22 321 16 309 Q13 303 11 298 Q9 293 6 286 Q5 285 1 285 Q-3 288 -2 292 Q2 309 14 330.5 Q26 352 44 363 Q53 368 60 365 Q67 362 69 354 Q74 333 70 304 Q66 275 58 244 Q72 255 86.5 268 Q101 281 114 293 L121 300 Q128 300 128 296.5 Q128 293 125 290 Q109 273 92 257 Q75 241 57 225 Q52 222 51 218 Q36 171 18 127 Q0 83 -21 39 Q-27 28 -34 16 Q-41 4 -49 -7.5 Q-57 -19 -65 -28 Q-73 -37 -81 -41 Q-94 -49 -106 -44.5 Q-118 -40 -123 -29 Q-131 -12 -129 9.5 Q-127 31 -122 49 Q-113 79 -97 104.5 Q-81 130 -58 153 Q-34 175 -11.5 192.5 Q11 210 34 225 Q37 226 39 231 Q44 248 49 265.5 Q54 283 57 302 Q59 316 59.5 330.5 Q60 345 57 356 Z M28 204 Q7 188 -13.5 173 Q-34 158 -52 140 Q-71 120 -85 98.5 Q-99 77 -107 51 Q-115 27 -116.5 4.5 Q-118 -18 -110 -31 Q-108 -35 -106 -35.5 Q-104 -36 -100 -35 Q-92 -33 -82.5 -23 Q-73 -13 -64 0 Q-55 13 -46.5 27.5 Q-38 42 -33 53 Q-16 90 0.5 128.5 Q17 167 28 204 Z M54 431 Q53 433 55.5 433.5 Q58 434 60 435 Q72 438 83 441.5 Q94 445 105 447 Q108 448 111 445 Q114 442 112 439 Q104 438 90 434 Q76 430 65 427 Q57 424 54 431 Z " />
<glyph glyph-name="k" unicode="k" horiz-adv-x="171" d="M171 300 Q175 300 178 297.5 Q181 295 177 291 Q169 280 160.5 268.5 Q152 257 144 245 Q137 236 127 227 Q117 218 104 216 Q89 213 80.5 219 Q72 225 69 235 Q64 251 63.5 261.5 Q63 272 54 274 L51 268 L24 199 Q19 187 14.5 175 Q10 163 2 151 Q-1 146 -4.5 143 Q-8 140 -14 142 Q-27 147 -29 163 Q-30 178 -27 196.5 Q-24 215 -19 236 Q-14 257 -7.5 278.5 Q-1 300 6 320 Q19 355 31.5 390 Q44 425 56 460 Q63 480 69 498 Q75 516 82 539 Q84 544 84.5 545.5 Q85 547 89 546 Q93 545 93 541 Q88 514 78.5 485 Q69 456 60 428 Q48 393 36 359 Q24 325 13 290 Q10 279 4.5 260.5 Q-1 242 -5.5 222 Q-10 202 -13 183 Q-16 164 -14 153 Q-2 170 9.5 200.5 Q21 231 35 262 Q42 278 50 297 Q58 316 67 334.5 Q76 353 86 369 Q96 385 107 397 Q112 404 122 400 Q125 398 128 396 Q131 394 130 390 Q127 361 111.5 329.5 Q96 298 73 273 Q75 264 75.5 254.5 Q76 245 80 236 Q85 223 98 226 Q109 228 118.5 237.5 Q128 247 139 261 Q147 270 153.5 279 Q160 288 168 297 L171 300 Z M68 286 Q88 306 100.5 333 Q113 360 118 389 Q114 387 111.5 384 Q109 381 107 378 Q93 358 82 336 Q71 314 61 291 Q62 290 68 286 Z " />
<glyph glyph-name="l" unicode="l" horiz-adv-x="147" d="M-25 169 Q-23 207 -15 243.5 Q-7 280 4 316 Q23 385 48 450.5 Q73 516 103 580 Q117 609 128 632.5 Q139 656 151 680 Q154 685 159 683 Q164 681 162 675 Q151 649 140.5 624.5 Q130 600 119 577 Q98 530 79.5 483.5 Q61 437 44 389 Q35 360 25 328.5 Q15 297 7 266.5 Q-1 236 -5.5 207 Q-10 178 -10 153 Q-10 147 -9.5 140 Q-9 133 -6.5 126.5 Q-4 120 0 116 Q4 112 10 113 Q28 117 42.5 138 Q57 159 68 175 Q86 204 104 232.5 Q122 261 140 290 Q141 291 141.5 292.5 Q142 294 144 296 Q145 298 147 300 Q155 300 155.5 297 Q156 294 154 292 Q140 269 124.5 243.5 Q109 218 94 193 Q83 174 72 156 Q61 138 47 123 Q45 121 40 116.5 Q35 112 28.5 108.5 Q22 105 14 104 Q6 103 -1 106 Q-15 113 -21 129.5 Q-27 146 -25 169 Z " />
<glyph glyph-name="m" unicode="m" horiz-adv-x="228" d="M-9 202 Q-4 207 4 219.5 Q12 232 20 247.5 Q28 263 35.5 279 Q43 295 48 307 Q63 347 80 386 Q97 425 115 463 Q122 476 127 485 Q132 494 138 502 Q144 508 151 505 Q157 502 157 495 Q155 471 151 449.5 Q147 428 141 409 Q136 395 131.5 378 Q127 361 124 343.5 Q121 326 120 311.5 Q119 297 123 288 Q131 293 137.5 300 Q144 307 152 311 Q158 315 164 312.5 Q170 310 170 302 Q169 283 166 264.5 Q163 246 163 230 Q169 230 176.5 235.5 Q184 241 191.5 249.5 Q199 258 206 266.5 Q213 275 216 281 Q218 286 223 292 Q226 296 228 300 Q235 299 236 297 Q237 295 236 293 Q223 273 211 253.5 Q199 234 179 221 Q171 215 159.5 221 Q148 227 150 238 Q150 252 152.5 267.5 Q155 283 159 302 Q154 297 148 293 Q142 289 138 284 Q130 277 123.5 279 Q117 281 112 287 Q106 296 107 313.5 Q108 331 112 351 Q116 371 121.5 390 Q127 409 130 420 Q135 438 138.5 453.5 Q142 469 145 488 Q139 480 133.5 469.5 Q128 459 123 450 Q106 414 90 377 Q74 340 60 302 Q54 288 46.5 271 Q39 254 31 238 Q23 222 16 209.5 Q9 197 4 193 Q-3 187 -12 192 Q-25 197 -25 213 Q-23 241 -14 268.5 Q-5 296 11 327 Q15 334 22 331 Q26 329 24 324 Q23 323 23 322 Q17 306 11.5 290.5 Q6 275 1 259 Q-3 248 -6.5 233 Q-10 218 -9 202 Z " />
<glyph glyph-name="n" unicode="n" horiz-adv-x="153" d="M91 243 Q96 244 104 250.5 Q112 257 120 265 Q128 273 136 281.5 Q144 290 150 297 L153 300 Q158 299 159 295.5 Q160 292 157 289 Q146 275 131 258.5 Q116 242 106 237 Q96 231 89 234.5 Q82 238 79 247 Q76 255 77 269 Q78 283 80 298.5 Q82 314 85.5 329.5 Q89 345 91 357 Q93 364 93 370 Q93 376 93 383 Q87 378 82.5 372.5 Q78 367 74 361 Q53 327 39 291 Q25 255 7 221 Q4 215 -0.5 211.5 Q-5 208 -13 212 Q-20 215 -21 222 Q-21 248 -9 279 Q3 310 16 333 Q18 339 25 337 Q29 334 28 330 Q18 303 7.5 279.5 Q-3 256 -5 229 Q5 251 15.5 275 Q26 299 37 321 Q48 343 59.5 361 Q71 379 82 390 Q87 395 96 393 Q105 391 105 381 Q105 376 105 370.5 Q105 365 104 360 Q101 344 98 326.5 Q95 309 93 293 Q91 277 90 263.5 Q89 250 91 243 Z " />
<glyph glyph-name="o" unicode="o" horiz-adv-x="150" d="M87 265 Q102 267 117.5 277 Q133 287 144 296 Q146 297 148 299 Q149 300 150 300 Q157 298 156 295.5 Q155 293 154 292 Q134 275 117.5 264.5 Q101 254 82 251 Q80 251 76 247 Q65 233 55 222.5 Q45 212 31 207 Q20 202 8.5 209 Q-3 216 -1 231 Q0 253 11 273 Q12 277 10 280 Q-15 312 1 353 Q10 374 25 392 Q40 410 65 416 Q81 420 98.5 410 Q116 400 117 374 Q118 348 109.5 318 Q101 288 87 265 Z M26 276 Q34 268 43.5 264 Q53 260 65 261 Q69 261 72 265 Q88 294 98 322.5 Q108 351 106 380 Q104 397 91 403.5 Q78 410 64 405 Q44 397 32 381 Q20 365 13 347 Q7 330 7.5 314 Q8 298 17 287 Q22 295 25.5 302 Q29 309 34 316 Q36 318 36.5 319.5 Q37 321 39 323 Q41 325 45 324.5 Q49 324 51 321 Q53 318 50.5 316.5 Q48 315 46 313 Q40 304 35.5 295 Q31 286 26 276 Z M61 250 Q50 252 40.5 256.5 Q31 261 23 267 Q18 259 12.5 242.5 Q7 226 11 217 Q13 213 16 215 Q27 217 37 224.5 Q47 232 61 250 Z " />
<glyph glyph-name="p" unicode="p" horiz-adv-x="148" d="M-41 113 Q-23 163 -4.5 212.5 Q14 262 37 311 Q51 343 69 372 Q74 380 78.5 385.5 Q83 391 89 396 Q94 401 101.5 398 Q109 395 111 388 Q113 355 99.5 319 Q86 283 72 254 Q96 257 116 274 Q124 280 131 286 Q138 292 145 298 Q147 300 147 300 L148 300 Q157 299 155 295.5 Q153 292 152 291 Q145 284 138 277 Q131 270 123 264 Q104 246 73 243 Q66 243 63 238 Q55 227 48 216 Q41 205 30 197 Q20 190 14.5 191 Q9 192 3 196 Q-21 133 -41 72 Q-61 11 -86 -46 Q-89 -50 -91 -51 Q-93 -52 -97 -50 Q-103 -47 -104.5 -44 Q-106 -41 -105 -34 Q-103 -23 -101 -12 Q-99 -1 -97 10 Q-76 99 -43.5 186.5 Q-11 274 22 357 Q24 360 30 359 Q34 358 33 352 Q5 273 -23.5 195.5 Q-52 118 -74 37 Q-77 25 -80 12.5 Q-83 0 -87 -13 Q-73 19 -62.5 50.5 Q-52 82 -41 113 Z M21 244 Q29 246 35.5 247.5 Q42 249 50 251 Q56 251 57 256 Q65 272 72.5 288 Q80 304 86 321 Q92 336 97 356 Q102 376 100 388 Q92 383 81 365 Q70 347 58.5 324.5 Q47 302 37 279.5 Q27 257 21 244 Z M48 240 Q33 239 21 228 Q16 223 10.5 215 Q5 207 9 201 Q14 201 22 207 Q30 214 36 222 Q42 230 48 240 Z " />
<glyph glyph-name="q" unicode="q" horiz-adv-x="130" d="M121 390 Q98 361 79.5 330.5 Q61 300 42 269 Q37 261 30 252 Q23 243 15.5 236 Q8 229 1 225.5 Q-6 222 -11 225 Q-26 232 -24 248 Q-23 265 -11.5 284.5 Q0 304 13 318 Q18 324 26 328.5 Q34 333 42 330 Q50 326 50 321.5 Q50 317 51 311 Q57 321 65 334.5 Q73 348 82 361.5 Q91 375 100 387 Q109 399 117 405 Q122 408 127.5 407.5 Q133 407 135 402 Q137 397 136 389 Q135 381 132 372.5 Q129 364 125.5 355.5 Q122 347 119 341 Q98 298 79.5 259 Q61 220 45 180.5 Q29 141 15 97.5 Q1 54 -10 3 Q-18 -29 -22.5 -60.5 Q-27 -92 -30 -123 Q-27 -129 -33 -133 Q-39 -136 -42 -131.5 Q-45 -127 -45 -120 Q-45 -106 -44 -93.5 Q-43 -81 -41 -67 Q-33 -3 -16 57 Q1 117 24 177 Q46 234 73 286.5 Q100 339 121 390 Z M-8 235 Q-2 238 5 245.5 Q12 253 19.5 263 Q27 273 33.5 283 Q40 293 45 301 L45 302 Q39 304 39 312 L39 321 Q31 317 23 309 Q18 302 11.5 292.5 Q5 283 0 272.5 Q-5 262 -7.5 252 Q-10 242 -8 235 Z " />
<glyph glyph-name="r" unicode="r" horiz-adv-x="96" d="M6 293 Q3 296 -3.5 301.5 Q-10 307 -15 312 Q-25 322 -24 335 Q-23 348 -15.5 360 Q-8 372 3.5 381.5 Q15 391 27 394 Q49 400 49 378 Q49 366 44.5 354 Q40 342 34 331.5 Q28 321 22 313 Q16 305 13 301 Q29 285 18 262 Q6 239 -6 220.5 Q-18 202 -31 180 Q-23 182 -7 196.5 Q9 211 27.5 229.5 Q46 248 64 267.5 Q82 287 96 300 Q103 298 101 295 Q99 292 97 290 Q65 258 39 225.5 Q13 193 -18 173 Q-28 168 -31.5 168 Q-35 168 -40 173 Q-45 177 -39 189.5 Q-33 202 -23.5 217 Q-14 232 -4 246 Q6 260 10 269 Q14 277 12.5 282.5 Q11 288 6 293 Z M4 306 Q8 312 14.5 320.5 Q21 329 27 339 Q33 349 37 360 Q41 371 41 382 Q41 387 36 387 Q30 386 19 377.5 Q8 369 -1 358 Q-10 347 -14 335.5 Q-18 324 -10 318 Q-6 315 -3 312 Q0 309 4 306 Z " />
<glyph glyph-name="s" unicode="s" horiz-adv-x="85" d="M85 300 Q87 299 88 297 Q90 294 86 290 Q78 283 61 274 Q44 265 29 257 Q29 230 15.5 203.5 Q2 177 -21 160 Q-33 151 -47.5 157 Q-62 163 -61 179 Q-61 194 -51 209 Q-39 226 -22 238 Q-5 250 15 262 Q7 284 -4 307 Q-19 343 11 373 Q17 379 28.5 380 Q40 381 41 367 Q42 348 33.5 330.5 Q25 313 13 298 Q16 291 19.5 283.5 Q23 276 26 268 Q30 270 38 274 Q46 278 55.5 283 Q65 288 73 292.5 Q81 297 85 300 Z M8 308 Q14 315 19 324.5 Q24 334 28 343.5 Q32 353 32.5 361 Q33 369 30 372 Q22 372 16 364.5 Q10 357 6.5 347 Q3 337 3 326 Q3 315 8 308 Z M-37 166 Q-26 171 -17 181 Q-8 191 -1 202.5 Q6 214 10.5 226.5 Q15 239 16 249 Q6 243 -6.5 235 Q-19 227 -29 217.5 Q-39 208 -45 196.5 Q-51 185 -47 170 Q-46 168 -43 166 Q-40 164 -37 166 Z " />
<glyph glyph-name="t" unicode="t" horiz-adv-x="57" d="M-111 -79 Q-121 -75 -120.5 -55.5 Q-120 -36 -115 -12.5 Q-110 11 -103.5 32 Q-97 53 -95 61 Q-72 133 -44 196 Q-16 259 8 324 Q9 326 10 328 Q11 330 11 332 Q12 353 7.5 375 Q3 397 -12 412 Q-15 414 -17.5 415.5 Q-20 417 -25 416 Q-33 415 -40.5 414.5 Q-48 414 -56 413 Q-60 413 -66 414.5 Q-72 416 -74 420 Q-77 426 -72 428.5 Q-67 431 -63 431 Q-47 432 -32 428 Q-23 425 -12 427 Q4 428 20 429 Q36 430 53 431 Q58 431 60 436 Q68 457 75.5 472 Q83 487 90 503 L93 509 Q97 519 104 512 Q106 509 104.5 507 Q103 505 101 502 Q94 485 87 467.5 Q80 450 73 433 Q99 435 132 436 Q165 437 191 439 Q193 439 197.5 439.5 Q202 440 204 437 Q206 432 197 430 Q186 429 167 428 Q148 427 128.5 425.5 Q109 424 92.5 423.5 Q76 423 72 423 Q67 421 66 418 Q55 395 45.5 373 Q36 351 25 328 Q23 326 23 321 Q13 238 -11 158.5 Q-35 79 -62 2 Q-68 -17 -77 -38 Q-86 -59 -93 -70 Q-95 -73 -100 -77 Q-105 -81 -111 -79 Z M-107 -67 Q-99 -56 -90 -33 Q-81 -10 -75 7 Q-53 77 -30 143 Q-7 209 3 276 Q-18 228 -37 179.5 Q-56 131 -73 81 Q-78 66 -83.5 47.5 Q-89 29 -94.5 9 Q-100 -11 -103.5 -30.5 Q-107 -50 -107 -67 Z M23 357 Q31 374 38 389.5 Q45 405 53 421 Q38 420 23.5 419.5 Q9 419 -5 418 Q6 407 13.5 391 Q21 375 23 357 Z " />
<glyph glyph-name="u" unicode="u" horiz-adv-x="120" d="M-1 247 Q5 250 12 259 Q19 268 24 274 Q35 289 44.5 304 Q54 319 65 334 Q68 339 71 342 Q74 345 79 343 Q83 342 83 334 Q81 321 78 309.5 Q75 298 71 284 Q69 276 67 265 Q65 254 66 249 Q83 255 94 269.5 Q105 284 116 295 Q117 295 117 296 Q117 297 118 298 L120 300 Q131 299 126 292 Q115 278 104 264.5 Q93 251 78 243 Q71 239 62 244 Q53 249 54 258 Q54 272 58.5 287.5 Q63 303 68 319 L38 274 Q31 264 23.5 253.5 Q16 243 9 239 Q3 234 -4.5 237.5 Q-12 241 -13 249 Q-15 260 -9.5 277.5 Q-4 295 3 308 Q6 313 8.5 318.5 Q11 324 14 329 Q15 333 21 332 Q27 331 25 325 Q23 321 22 317.5 Q21 314 19 309 Q16 303 12.5 294.5 Q9 286 5.5 277 Q2 268 0 260 Q-2 252 -1 247 Z " />
<glyph glyph-name="v" unicode="v" horiz-adv-x="177" d="M50 335 Q46 333 39.5 328 Q33 323 26.5 316 Q20 309 13.5 302 Q7 295 3 289 Q-2 286 -3.5 290.5 Q-5 295 -2 299 Q7 310 17.5 322.5 Q28 335 39 341 Q44 345 51.5 342.5 Q59 340 60 330 Q61 310 51 283.5 Q41 257 34 236 Q28 219 22.5 199.5 Q17 180 13.5 162.5 Q10 145 8.5 131.5 Q7 118 9 114 Q16 117 28 133.5 Q40 150 52.5 171 Q65 192 77 213.5 Q89 235 97 249 Q114 278 131 307.5 Q148 337 165 366 L180 393 Q181 396 182.5 400.5 Q184 405 191 403 Q196 400 193 394 Q190 388 188 385 Q177 364 165 343 Q153 322 142 302 Q125 272 109 242.5 Q93 213 76 183 Q63 162 52.5 142.5 Q42 123 25 109 Q18 103 10 106 Q2 109 -2 117 Q-5 129 -2 149 Q1 169 7.5 191 Q14 213 21 233.5 Q28 254 33 267 Q40 284 45 301 Q50 318 50 335 Z " />
<glyph glyph-name="w" unicode="w" horiz-adv-x="150" d="M25 280 Q28 284 31.5 288.5 Q35 293 40 291 Q44 289 44 285 Q44 277 43.5 272 Q43 267 42 260 Q47 262 53 268 Q59 274 63 282 Q55 284 52 293.5 Q49 303 51 310 Q55 331 68 353.5 Q81 376 98 384 Q106 389 114 381 Q119 375 117.5 366.5 Q116 358 114 351 Q112 345 107.5 336 Q103 327 98 316.5 Q93 306 87.5 297 Q82 288 78 282 Q92 280 113 286 Q134 292 150 300 Q156 299 155.5 296 Q155 293 153 292 Q135 283 113 274.5 Q91 266 73 275 Q68 268 59 257.5 Q50 247 41 252 Q33 255 33 264 L33 273 Q23 260 15 247.5 Q7 235 -1 223 Q-3 220 -6 215.5 Q-9 211 -13 207 Q-17 203 -21.5 201 Q-26 199 -30 201 Q-38 204 -38 212 Q-38 224 -32 239.5 Q-26 255 -17 272 Q-8 289 2.5 306 Q13 323 21 337 Q23 341 23 344 Q24 352 29 352 Q34 352 33.5 345.5 Q33 339 31 335 Q25 321 15 303.5 Q5 286 -4.5 268.5 Q-14 251 -20.5 235.5 Q-27 220 -27 211 Q-22 215 -15.5 223 Q-9 231 -2 241 Q5 251 12 261.5 Q19 272 25 280 Z M107 378 Q98 374 90.5 365.5 Q83 357 76.5 346.5 Q70 336 66 324.5 Q62 313 61 304 Q61 299 61.5 295 Q62 291 67 287 Q73 295 81 307.5 Q89 320 95 333.5 Q101 347 104.5 359 Q108 371 107 378 Z " />
<glyph glyph-name="x" unicode="x" horiz-adv-x="154" d="M53 258 Q67 279 82 299 Q97 319 112 339 Q121 348 125 345 Q130 341 126.5 338 Q123 335 121 333 Q103 307 85.5 282.5 Q68 258 53 232 Q50 227 51 220 Q53 216 56 218 Q66 220 78 228 Q90 236 102 246.5 Q114 257 125 269 Q136 281 145 291 L154 300 Q162 299 161.5 295.5 Q161 292 159 290 Q139 267 119 247 Q99 227 73 213 Q56 204 44 216 Q33 196 20 172.5 Q7 149 -7 129 Q-11 124 -16.5 119.5 Q-22 115 -28 118 Q-40 122 -40 135 Q-40 147 -38 159 Q-36 171 -34 182 Q-29 204 -22.5 230.5 Q-16 257 -7 283 Q2 309 13.5 332 Q25 355 39 369 Q47 376 54.5 373.5 Q62 371 64 361 Q65 351 64 338.5 Q63 326 61 312 Q59 298 56.5 284 Q54 270 53 258 Z M52 366 Q35 349 23 325 Q11 301 2.5 274 Q-6 247 -12 220.5 Q-18 194 -22 173 Q-24 158 -26 148.5 Q-28 139 -27 129 Q-20 134 -15.5 141.5 Q-11 149 -6 156 Q5 176 15.5 194.5 Q26 213 37 232 Q39 236 39 238 Q40 243 40 246.5 Q40 250 41 255 Q43 269 45.5 284 Q48 299 50 314 Q52 327 53 342.5 Q54 358 52 366 Z " />
<glyph glyph-name="y" unicode="y" horiz-adv-x="148" d="M65 311 Q52 294 40.5 276 Q29 258 15 248 Q6 241 -1 246.5 Q-8 252 -9 259 Q-11 274 -5 291 Q1 308 6 324 Q8 328 12 328 Q18 327 17 320 Q14 312 11.5 303 Q9 294 7 286 Q5 278 3.5 270.5 Q2 263 3 255 Q7 256 15 264.5 Q23 273 31.5 284 Q40 295 47.5 305.5 Q55 316 58 321 Q65 330 72 339.5 Q79 349 87 354 Q93 359 99 356.5 Q105 354 107 347 Q109 333 104 308.5 Q99 284 92 266 Q88 253 83.5 241.5 Q79 230 75 217 Q119 256 148 300 Q159 299 155 293 Q143 274 125 253 Q112 238 98 224 Q84 210 70 196 Q65 192 62 185 Q48 150 31 115.5 Q14 81 -7 48 Q-18 31 -32 14.5 Q-46 -2 -65 -9 Q-76 -14 -87 -7.5 Q-98 -1 -100 12 Q-104 44 -87 73 Q-70 102 -47 119 Q-23 136 -0.5 153 Q22 170 44 188 Q50 192 53 200 Q62 223 70.5 246 Q79 269 87 292 Q91 306 94 319 Q97 332 97 346 Q94 346 89 341 Q84 336 79.5 330 Q75 324 70.5 318.5 Q66 313 65 311 Z M39 168 Q15 150 -10.5 132 Q-36 114 -55 97 Q-72 80 -83.5 55 Q-95 30 -89 6 Q-85 -5 -74 -1 Q-54 8 -40.5 25 Q-27 42 -16 59 Q0 85 13.5 112.5 Q27 140 39 168 Z " />
<glyph glyph-name="z" unicode="z" horiz-adv-x="171" d="M105 369 Q74 355 49 333 Q38 324 28 314 Q18 304 8 293 Q5 290 1.5 286.5 Q-2 283 -5 287 Q-7 289 -4.5 293.5 Q-2 298 0 300 Q33 338 70 362 Q78 367 89 373 Q100 379 108 377 Q119 375 116 365 Q112 354 103 341.5 Q94 329 86 319 Q75 305 64 291 Q53 277 46 265 Q43 259 48 257 Q64 247 67 235.5 Q70 224 72 208 Q97 228 122.5 252.5 Q148 277 171 300 Q178 300 178.5 297 Q179 294 178 293 Q152 263 125 239.5 Q98 216 72 193 L70 191 Q66 168 56.5 148.5 Q47 129 35 110 Q24 94 13.5 79 Q3 64 -11 52 Q-22 42 -34.5 35.5 Q-47 29 -63 31 Q-70 32 -76.5 37.5 Q-83 43 -85 53 Q-88 73 -77.5 91.5 Q-67 110 -54 121 Q-42 132 -29.5 140.5 Q-17 149 -3 157 Q11 166 26 175.5 Q41 185 55 195 Q59 196 59 201 Q60 210 59.5 219 Q59 228 56 237 Q51 248 43 252 Q27 261 37 275 Q42 283 48 291 Q54 299 61 307 Q70 318 79 329.5 Q88 341 97 353 Q99 357 101.5 360.5 Q104 364 105 369 Z M54 179 Q42 171 29 163.5 Q16 156 4 148 Q-8 140 -20 132.5 Q-32 125 -43 115 Q-49 109 -56.5 100 Q-64 91 -69 81 Q-74 71 -75 61 Q-76 51 -70 43 Q-63 36 -53.5 39 Q-44 42 -34.5 49.5 Q-25 57 -17 66 Q-9 75 -4 80 Q13 100 29 125.5 Q45 151 54 179 Z " />
<glyph glyph-name="braceleft" unicode="&#x7b;" horiz-adv-x="257" d="M331 689 Q336 684 338 675.5 Q340 667 335 665 Q328 661 326 674 Q325 677 324.5 679.5 Q324 682 323 685 Q306 681 295.5 663.5 Q285 646 277 631 Q264 608 254 584 Q244 560 235 535 Q220 499 206.5 460 Q193 421 176 383.5 Q159 346 136.5 311.5 Q114 277 82 249 Q87 240 88 231 Q89 222 89 213 Q87 180 78.5 147 Q70 114 62 80 Q53 45 46.5 10 Q40 -25 38 -63 Q37 -73 37.5 -84 Q38 -95 44 -104 Q47 -104 48.5 -101.5 Q50 -99 54 -101 Q57 -101 58.5 -103.5 Q60 -106 57 -109 Q49 -116 41 -112 Q30 -107 26.5 -95 Q23 -83 23 -70 Q23 -38 28 -6.5 Q33 25 40.5 57 Q48 89 56.5 121 Q65 153 72 187 Q74 201 76 214 Q78 227 73 241 Q66 237 59.5 232.5 Q53 228 44 223 Q34 218 26 223 Q17 229 21 237 Q26 248 34 255 Q52 268 71 258 Q106 289 130 329 Q154 369 172.5 413 Q191 457 206.5 503 Q222 549 242 593 Q250 610 258 627 Q266 644 276 660 Q281 669 289 678 Q297 687 308 692 Q320 700 331 689 Z M32 230 Q41 234 49 239.5 Q57 245 65 252 Q54 254 44 247 Q34 240 32 230 Z " />
<glyph glyph-name="bar" unicode="&#x7c;" horiz-adv-x="283" d="M275 752 Q285 752 284 744 L281 726 Q273 693 261.5 662 Q250 631 238 599 Q186 468 139 338.5 Q92 209 49 76 Q29 16 10.5 -43.5 Q-8 -103 -27 -163 Q-29 -171 -31.5 -178.5 Q-34 -186 -36 -194 Q-36 -199 -35 -199 Q-33 -204 -38 -207 Q-39 -209 -43 -207 Q-49 -205 -48 -198 Q-46 -191 -44.5 -184.5 Q-43 -178 -41 -170 Q-24 -107 -5 -45.5 Q14 16 34 78 Q63 169 94 258.5 Q125 348 159 438 Q179 489 198.5 539 Q218 589 238 640 Q248 664 255.5 688 Q263 712 271 737 Q272 741 273 744.5 Q274 748 275 752 Z " />
<glyph glyph-name="braceright" unicode="&#x7d;" horiz-adv-x="310" d="M-89 -140 Q-61 -128 -41 -108 Q-21 -88 -4 -67 Q13 -45 26 -22 Q39 1 50 26 Q90 119 122 215 Q124 223 126.5 229.5 Q129 236 131 243 L129 245 Q122 248 120 258 Q118 278 126 298 Q134 318 141 335 Q161 386 181.5 437.5 Q202 489 225 540 Q233 559 242 583.5 Q251 608 256.5 632 Q262 656 262.5 676.5 Q263 697 255 709 Q251 713 242.5 714.5 Q234 716 228 712 Q225 710 222.5 712 Q220 714 221 717 Q221 722 230 724 Q247 726 259 717 Q271 708 273 690 Q278 644 265 602.5 Q252 561 236 523 Q212 467 189.5 412 Q167 357 145 300 Q140 287 136 275 Q132 263 134 252 Q138 256 140 261 Q142 266 145 271 Q147 275 153 274 Q159 272 159 267 Q159 253 150 245 Q147 243 145 237 Q140 223 135.5 209 Q131 195 126 181 Q111 133 92.5 87.5 Q74 42 53 -3 Q25 -64 -26 -113 Q-40 -126 -53 -135.5 Q-66 -145 -83 -149 Q-92 -150 -99 -146 Q-104 -141 -99 -136 Q-96 -134 -93.5 -136 Q-91 -138 -89 -140 Z " />
<glyph glyph-name="asciitilde" unicode="&#x7e;" horiz-adv-x="319" d="M10 267 Q-3 270 3 281 Q10 295 27.5 308 Q45 321 59 328 Q92 343 117 318 Q127 307 135.5 298.5 Q144 290 152 282 Q162 272 176 277 Q193 283 206.5 294 Q220 305 234 316 Q239 319 241.5 319 Q244 319 246 317 Q249 314 246 311 Q229 296 214 282.5 Q199 269 179 265 Q168 263 157.5 268 Q147 273 139 281 Q130 291 123 298.5 Q116 306 108 314 Q97 326 79 323 Q60 317 44 305.5 Q28 294 16 280 Q13 277 12.5 275.5 Q12 274 10 267 Z " />
<glyph glyph-name="sterling" unicode="&#xa3;" horiz-adv-x="758" d="M761 636 Q753 622 743.5 610 Q734 598 723 586 Q695 555 663 528.5 Q631 502 594 491 L582 488 Q574 486 569 491 Q567 493 568.5 495 Q570 497 570 496 Q575 495 578.5 496 Q582 497 586 499 Q634 519 671.5 554 Q709 589 738 627 Q750 644 759.5 663 Q769 682 767 700 Q764 712 757 718.5 Q750 725 740.5 727.5 Q731 730 720 729.5 Q709 729 700 726 Q647 714 606.5 677.5 Q566 641 539 598 Q525 578 514 556.5 Q503 535 493 512 Q474 472 456 432 Q438 392 420 352 Q442 350 463.5 348.5 Q485 347 506 345 Q520 343 533 342 Q546 341 560 337 Q569 335 573 332 Q576 329 574 325 Q573 321 568 321 Q563 323 560 327 Q557 330 555 330 Q542 332 529 333 Q516 334 503 335 Q481 337 459 338 Q437 339 415 341 Q392 294 369 249 Q346 204 320 159 Q298 122 275.5 86.5 Q253 51 227 16 Q256 5 285 -6 Q314 -17 343 -28 Q418 -53 486.5 -64 Q555 -75 624 -83 Q633 -84 645.5 -84.5 Q658 -85 666 -84 Q672 -84 675 -86 Q679 -91 674 -93 Q668 -95 664 -95 Q656 -94 648.5 -94 Q641 -94 633 -93 Q554 -85 481.5 -74.5 Q409 -64 338 -36 Q309 -25 279.5 -13.5 Q250 -2 221 9 Q192 -30 159 -64 Q126 -98 87 -121 Q67 -132 47 -136.5 Q27 -141 10 -129 Q3 -124 -0.5 -117.5 Q-4 -111 -6 -103 Q-8 -83 -2.5 -64 Q3 -45 14 -28.5 Q25 -12 40 1 Q55 14 72 22 Q107 38 141 34.5 Q175 31 209 22 Q242 64 270.5 110.5 Q299 157 326 205 Q344 239 361 272.5 Q378 306 395 341 Q337 343 284.5 340 Q232 337 181 328 Q178 327 175.5 326.5 Q173 326 168 325 Q162 323 162 331 Q161 337 172 338.5 Q183 340 185 340 Q241 351 295.5 353 Q350 355 401 353 Q418 391 435.5 429.5 Q453 468 471 506 Q481 528 491.5 549.5 Q502 571 514 591 Q530 615 548.5 638.5 Q567 662 588.5 681.5 Q610 701 634.5 715 Q659 729 686 735 Q706 740 731.5 738 Q757 736 770 718 Q784 700 778.5 677.5 Q773 655 761 636 Z M204 14 Q175 23 146.5 25 Q118 27 90 17 Q72 9 55.5 -3.5 Q39 -16 27 -32.5 Q15 -49 9 -68 Q3 -87 7 -106 Q13 -131 39 -127 Q53 -124 68 -116 Q111 -91 143 -57 Q175 -23 204 14 Z " />
<glyph glyph-name="exclam" unicode="&#x21;" horiz-adv-x="195" d="M19 21 Q26 19 25 14.5 Q24 10 19 10 Q14 9 11 13.5 Q8 18 7 23 Q6 33 9 51 Q12 69 17 89.5 Q22 110 28.5 130.5 Q35 151 40 168 Q62 242 87.5 313.5 Q113 385 140 457 Q155 497 171 536.5 Q187 576 202 615 Q208 630 213.5 645 Q219 660 224 675 Q227 686 234 684 Q239 682 238 676 Q237 670 236 667 Q229 644 221 620.5 Q213 597 204 574 Q185 523 166 471.5 Q147 420 127 369 Q109 320 91.5 271.5 Q74 223 57 173 Q51 154 44 132 Q37 110 31.5 89 Q26 68 22.5 50 Q19 32 19 21 Z M-5 -60 Q-9 -58 -7 -52 Q-5 -45 -2 -38 Q1 -31 3 -24 Q5 -14 12 -17 Q17 -19 16.5 -22.5 Q16 -26 14 -30 Q12 -36 9 -42 Q6 -48 4 -54 Q1 -61 0 -61.5 Q-1 -62 -5 -60 Z " />
<glyph glyph-name="numbersign" unicode="&#x23;" horiz-adv-x="323" d="M232 339 Q244 339 255.5 339 Q267 339 276 334 Q278 332 277 329.5 Q276 327 274 327 Q262 328 250.5 328 Q239 328 227 328 Q225 321 222 314 Q219 307 216 299 Q231 299 240.5 299 Q250 299 257 297 Q260 297 262 293 Q264 289 260 289 Q258 288 254 288 Q243 287 232.5 287 Q222 287 211 286 Q194 239 179 191.5 Q164 144 150 96 Q146 80 142.5 65.5 Q139 51 138 41 Q145 35 142.5 29.5 Q140 24 136 24 Q131 23 127.5 27.5 Q124 32 124 37 Q128 69 135 99 Q142 129 150 159 Q159 191 168.5 221 Q178 251 190 285 L183 285 Q180 286 178 283 Q167 263 155 243.5 Q143 224 130 205 Q127 201 122.5 195 Q118 189 112.5 183.5 Q107 178 101.5 175 Q96 172 91 174 Q74 180 74 198 Q74 214 78 237 Q82 260 90 280 Q70 279 51.5 277 Q33 275 13 273 Q10 272 7.5 273.5 Q5 275 3 277 Q0 280 5 282 Q25 287 48.5 288.5 Q72 290 94 292 Q98 302 101.5 311 Q105 320 109 330 Q86 330 73 329.5 Q60 329 45 327 Q38 326 35 330 Q33 333 39.5 335 Q46 337 48 337 Q64 339 80.5 339 Q97 339 114 340 Q124 362 135 382.5 Q146 403 159 423 Q163 428 165 430 Q167 432 173 430 Q177 429 177 424 Q175 419 173.5 412 Q172 405 166 408 Q157 391 148.5 374.5 Q140 358 132 341 L195 341 Q195 341 197 343 Q209 363 221.5 383.5 Q234 404 246 424 Q260 449 270.5 471 Q281 493 291 510 Q293 515 298.5 514.5 Q304 514 307 510 Q308 506 305 501 Q284 462 266 421.5 Q248 381 232 339 Z M91 185 Q115 205 131 232.5 Q147 260 161 284 Q149 284 137 283.5 Q125 283 112 282 Q108 282 107 278 Q105 270 102 262 Q99 254 97 246 Q94 232 91 214.5 Q88 197 91 185 Z M113 294 Q128 296 140.5 296 Q153 296 167 297 Q171 298 172 301 Q176 308 179.5 315 Q183 322 188 330 L127 330 Q124 321 120.5 312.5 Q117 304 113 294 Z M207 329 Q205 328 202.5 324 Q200 320 197 315 Q194 310 191.5 305.5 Q189 301 188 299 Q193 297 194 297.5 Q195 298 197 303 Q200 310 202 316.5 Q204 323 207 329 Z " />
<glyph glyph-name="quotedbl" unicode="&#x22;" horiz-adv-x="195" d="M161 541 Q157 543 158 550 Q162 565 167.5 579.5 Q173 594 180 608 Q182 613 185.5 617 Q189 621 194 618 Q197 616 196 612 Q187 597 180 581 Q173 565 168 548 Q165 540 161 541 Z M143 561 Q135 563 135 565 Q135 567 137 573 Q140 581 142.5 588.5 Q145 596 148 604 Q150 609 157 607 Q162 605 161 602 Q160 599 159 596 L147 566 Q144 561 143 561 Z " />
</font>
</svg>
